<svg width="87" height="86" viewBox="0 0 87 86" fill="none" xmlns="http://www.w3.org/2000/svg">
<g filter="url(#filter0_d_219_3950)">
<path d="M43.6773 29.4004V34.8004C43.6773 35.2778 43.8669 35.7356 44.2045 36.0732C44.542 36.4107 44.9999 36.6004 45.4773 36.6004H50.8773V46.8004C50.8773 47.2778 50.6876 47.7356 50.3501 48.0732C50.0125 48.4107 49.5546 48.6004 49.0773 48.6004H43.3689C44.2651 47.5151 44.7909 46.1716 44.8695 44.7663C44.948 43.3609 44.5753 41.9673 43.8056 40.7888C43.0359 39.6103 41.9096 38.7088 40.5912 38.2159C39.2728 37.7229 37.8313 37.6644 36.4773 38.0488V31.2004C36.4773 30.723 36.6669 30.2652 37.0045 29.9276C37.342 29.59 37.7999 29.4004 38.2773 29.4004H43.6773ZM44.8773 29.7004V34.8004C44.8773 34.9595 44.9405 35.1121 45.053 35.2247C45.1655 35.3372 45.3181 35.4004 45.4773 35.4004H50.5773L44.8773 29.7004ZM43.6773 44.4004C43.6773 45.8326 43.1083 47.2061 42.0956 48.2188C41.0829 49.2315 39.7094 49.8004 38.2773 49.8004C36.8451 49.8004 35.4716 49.2315 34.4589 48.2188C33.4462 47.2061 32.8773 45.8326 32.8773 44.4004C32.8773 42.9682 33.4462 41.5947 34.4589 40.582C35.4716 39.5693 36.8451 39.0004 38.2773 39.0004C39.7094 39.0004 41.0829 39.5693 42.0956 40.582C43.1083 41.5947 43.6773 42.9682 43.6773 44.4004ZM38.8773 42.0004C38.8773 41.8413 38.814 41.6886 38.7015 41.5761C38.589 41.4636 38.4364 41.4004 38.2773 41.4004C38.1181 41.4004 37.9655 41.4636 37.853 41.5761C37.7405 41.6886 37.6773 41.8413 37.6773 42.0004V43.8004H35.8773C35.7181 43.8004 35.5655 43.8636 35.453 43.9761C35.3405 44.0886 35.2773 44.2413 35.2773 44.4004C35.2773 44.5595 35.3405 44.7121 35.453 44.8247C35.5655 44.9372 35.7181 45.0004 35.8773 45.0004H37.6773V46.8004C37.6773 46.9595 37.7405 47.1121 37.853 47.2247C37.9655 47.3372 38.1181 47.4004 38.2773 47.4004C38.4364 47.4004 38.589 47.3372 38.7015 47.2247C38.814 47.1121 38.8773 46.9595 38.8773 46.8004V45.0004H40.6773C40.8364 45.0004 40.989 44.9372 41.1015 44.8247C41.214 44.7121 41.2773 44.5595 41.2773 44.4004C41.2773 44.2413 41.214 44.0886 41.1015 43.9761C40.989 43.8636 40.8364 43.8004 40.6773 43.8004H38.8773V42.0004Z" fill="url(#paint0_linear_219_3950)"/>
<path d="M23.6772 12H63.6772V10H23.6772V12ZM70.6772 19V59H72.6772V19H70.6772ZM63.6772 66H23.6772V68H63.6772V66ZM16.6772 59V19H14.6772V59H16.6772ZM23.6772 66C19.8113 66 16.6772 62.866 16.6772 59H14.6772C14.6772 63.9706 18.7067 68 23.6772 68V66ZM70.6772 59C70.6772 62.866 67.5432 66 63.6772 66V68C68.6478 68 72.6772 63.9706 72.6772 59H70.6772ZM63.6772 12C67.5432 12 70.6772 15.134 70.6772 19H72.6772C72.6772 14.0294 68.6478 10 63.6772 10V12ZM23.6772 10C18.7067 10 14.6772 14.0294 14.6772 19H16.6772C16.6772 15.134 19.8113 12 23.6772 12V10Z" fill="url(#paint1_linear_219_3950)"/>
</g>
<defs>
<filter id="filter0_d_219_3950" x="0.677246" y="0" width="86" height="86" filterUnits="userSpaceOnUse" color-interpolation-filters="sRGB">
<feFlood flood-opacity="0" result="BackgroundImageFix"/>
<feColorMatrix in="SourceAlpha" type="matrix" values="0 0 0 0 0 0 0 0 0 0 0 0 0 0 0 0 0 0 127 0" result="hardAlpha"/>
<feOffset dy="4"/>
<feGaussianBlur stdDeviation="7.5"/>
<feComposite in2="hardAlpha" operator="out"/>
<feColorMatrix type="matrix" values="0 0 0 0 0 0 0 0 0 0 0 0 0 0 0 0 0 0 0.15 0"/>
<feBlend mode="normal" in2="BackgroundImageFix" result="effect1_dropShadow_219_3950"/>
<feBlend mode="normal" in="SourceGraphic" in2="effect1_dropShadow_219_3950" result="shape"/>
</filter>
<linearGradient id="paint0_linear_219_3950" x1="32.8773" y1="39.6004" x2="50.8773" y2="39.6004" gradientUnits="userSpaceOnUse">
<stop stop-color="#2EA8FA"/>
<stop offset="1" stop-color="#076EB3"/>
</linearGradient>
<linearGradient id="paint1_linear_219_3950" x1="15.6772" y1="39" x2="71.6772" y2="39" gradientUnits="userSpaceOnUse">
<stop stop-color="#2EA8FA"/>
<stop offset="1" stop-color="#076EB3"/>
</linearGradient>
</defs>
</svg>
