<svg width="20" height="22" viewBox="0 0 20 22" fill="none" xmlns="http://www.w3.org/2000/svg">
<path d="M17 2H16V1C16 0.4 15.6 0 15 0C14.4 0 14 0.4 14 1V2H6V1C6 0.4 5.6 0 5 0C4.4 0 4 0.4 4 1V2H3C1.3 2 0 3.3 0 5V19C0 20.7 1.3 22 3 22H17C18.7 22 20 20.7 20 19V5C20 3.4 18.7 2 17 2ZM18 8H2V5C2 4.4 2.4 4 3 4H4V5C4 5.6 4.4 6 5 6C5.6 6 6 5.6 6 5V4H14V5C14 5.6 14.4 6 15 6C15.6 6 16 5.6 16 5V4H17C17.6 4 18 4.4 18 5V8Z" fill="url(#paint0_linear_950_78)"/>
<defs>
<linearGradient id="paint0_linear_950_78" x1="-7.45057e-08" y1="11" x2="20" y2="11" gradientUnits="userSpaceOnUse">
<stop stop-color="#2EA8FA"/>
<stop offset="1" stop-color="#076EB3"/>
</linearGradient>
</defs>
</svg>
