<svg width="21" height="22" viewBox="0 0 21 22" fill="none" xmlns="http://www.w3.org/2000/svg">
<path d="M17.1533 2H16.1533V1C16.1533 0.4 15.7533 0 15.1533 0C14.5533 0 14.1533 0.4 14.1533 1V2H6.15332V1C6.15332 0.4 5.75332 0 5.15332 0C4.55332 0 4.15332 0.4 4.15332 1V2H3.15332C1.45332 2 0.15332 3.3 0.15332 5V19C0.15332 20.7 1.45332 22 3.15332 22H17.1533C18.8533 22 20.1533 20.7 20.1533 19V5C20.1533 3.4 18.8533 2 17.1533 2ZM18.1533 8H2.15332V5C2.15332 4.4 2.55332 4 3.15332 4H4.15332V5C4.15332 5.6 4.55332 6 5.15332 6C5.75332 6 6.15332 5.6 6.15332 5V4H14.1533V5C14.1533 5.6 14.5533 6 15.1533 6C15.7533 6 16.1533 5.6 16.1533 5V4H17.1533C17.7533 4 18.1533 4.4 18.1533 5V8Z" fill="url(#paint0_linear_948_363)"/>
<defs>
<linearGradient id="paint0_linear_948_363" x1="0.15332" y1="11" x2="20.1533" y2="11" gradientUnits="userSpaceOnUse">
<stop stop-color="#2EA8FA"/>
<stop offset="1" stop-color="#076EB3"/>
</linearGradient>
</defs>
</svg>
