<svg width="24" height="24" viewBox="0 0 24 24" fill="none" xmlns="http://www.w3.org/2000/svg">
<path d="M10 13H4C3.4 13 3 13.4 3 14V20C3 20.6 3.4 21 4 21H10C10.6 21 11 20.6 11 20V14C11 13.4 10.6 13 10 13ZM10 3H4C3.4 3 3 3.4 3 4V10C3 10.6 3.4 11 4 11H10C10.6 11 11 10.6 11 10V4C11 3.4 10.6 3 10 3ZM20 16H18V14C18 13.4 17.6 13 17 13C16.4 13 16 13.4 16 14V16H14C13.4 16 13 16.4 13 17C13 17.6 13.4 18 14 18H16V20C16 20.6 16.4 21 17 21C17.6 21 18 20.6 18 20V18H20C20.6 18 21 17.6 21 17C21 16.4 20.6 16 20 16ZM20 3H14C13.4 3 13 3.4 13 4V10C13 10.6 13.4 11 14 11H20C20.6 11 21 10.6 21 10V4C21 3.4 20.6 3 20 3Z" fill="url(#paint0_linear_3_32)"/>
<defs>
<linearGradient id="paint0_linear_3_32" x1="3" y1="12" x2="21" y2="12" gradientUnits="userSpaceOnUse">
<stop stop-color="#2EA8FA"/>
<stop offset="1" stop-color="#076EB3"/>
</linearGradient>
</defs>
</svg>
