<svg width="4" height="11" viewBox="0 0 4 11" fill="none" xmlns="http://www.w3.org/2000/svg">
<path d="M2 2.63889C1.66848 2.63889 1.35054 2.50719 1.11612 2.27277C0.881696 2.03835 0.75 1.72041 0.75 1.38889C0.75 1.05736 0.881696 0.739423 1.11612 0.505002C1.35054 0.270582 1.66848 0.138885 2 0.138885C2.33152 0.138885 2.64946 0.270582 2.88388 0.505002C3.1183 0.739423 3.25 1.05736 3.25 1.38889C3.25 1.72041 3.1183 2.03835 2.88388 2.27277C2.64946 2.50719 2.33152 2.63889 2 2.63889ZM2 6.63889C1.66848 6.63889 1.35054 6.50719 1.11612 6.27277C0.881696 6.03835 0.75 5.72041 0.75 5.38889C0.75 5.05736 0.881696 4.73942 1.11612 4.505C1.35054 4.27058 1.66848 4.13889 2 4.13889C2.33152 4.13889 2.64946 4.27058 2.88388 4.505C3.1183 4.73942 3.25 5.05736 3.25 5.38889C3.25 5.72041 3.1183 6.03835 2.88388 6.27277C2.64946 6.50719 2.33152 6.63889 2 6.63889ZM0.75 9.38889C0.75 9.72041 0.881696 10.0383 1.11612 10.2728C1.35054 10.5072 1.66848 10.6389 2 10.6389C2.33152 10.6389 2.64946 10.5072 2.88388 10.2728C3.1183 10.0383 3.25 9.72041 3.25 9.38889C3.25 9.05736 3.1183 8.73942 2.88388 8.505C2.64946 8.27058 2.33152 8.13889 2 8.13889C1.66848 8.13889 1.35054 8.27058 1.11612 8.505C0.881696 8.73942 0.75 9.05736 0.75 9.38889Z" fill="black"/>
</svg>
