<svg width="44" height="44" viewBox="0 0 44 44" fill="none" xmlns="http://www.w3.org/2000/svg">
<path d="M22 20V26V20ZM22 26L19 23L22 26ZM22 26L25 23L22 26ZM27 31H17C16.4696 31 15.9609 30.7893 15.5858 30.4142C15.2107 30.0391 15 29.5304 15 29V15C15 14.4696 15.2107 13.9609 15.5858 13.5858C15.9609 13.2107 16.4696 13 17 13H22.586C22.8512 13.0001 23.1055 13.1055 23.293 13.293L28.707 18.707C28.8946 18.8945 28.9999 19.1488 29 19.414V29C29 29.5304 28.7893 30.0391 28.4142 30.4142C28.0391 30.7893 27.5304 31 27 31Z" stroke="black" stroke-opacity="0.6" stroke-width="2" stroke-linecap="round" stroke-linejoin="round"/>
<path d="M8 1H36V-1H8V1ZM43 8V36H45V8H43ZM36 43H8V45H36V43ZM1 36V8H-1V36H1ZM8 43C4.13401 43 1 39.866 1 36H-1C-1 40.9706 3.02944 45 8 45V43ZM43 36C43 39.866 39.866 43 36 43V45C40.9706 45 45 40.9706 45 36H43ZM36 1C39.866 1 43 4.13401 43 8H45C45 3.02944 40.9706 -1 36 -1V1ZM8 -1C3.02944 -1 -1 3.02944 -1 8H1C1 4.13401 4.13401 1 8 1V-1Z" fill="black" fill-opacity="0.6"/>
</svg>
