<svg width="44" height="44" viewBox="0 0 44 44" fill="none" xmlns="http://www.w3.org/2000/svg">
<path d="M34.1468 14.593L29.6518 10.2647C29.0651 9.73403 28.2964 9.42956 27.4918 9.40918C26.6872 9.38879 25.9029 9.6539 25.288 10.1541L10.5235 24.3713C9.99323 24.8863 9.66306 25.5612 9.58841 26.2828L8.88299 32.8701C8.86089 33.1015 8.89207 33.3347 8.97431 33.5531C9.05654 33.7716 9.1878 33.9698 9.35874 34.1338C9.51203 34.2803 9.69382 34.3961 9.8937 34.4747C10.0936 34.5533 10.3076 34.5932 10.5235 34.592H10.6711L17.5121 33.9917C18.2614 33.9198 18.9623 33.6019 19.4971 33.0912L34.2616 18.874C34.8347 18.291 35.1444 17.5131 35.1228 16.7107C35.1013 15.9082 34.7503 15.1467 34.1468 14.593ZM28.5691 19.8692L24.1725 15.6356L27.3715 12.4762L31.8501 16.7888L28.5691 19.8692Z" fill="url(#paint0_linear_436_6084)"/>
<rect x="0.5" y="0.5" width="43" height="43" rx="7.5" stroke="url(#paint1_linear_436_6084)"/>
<defs>
<linearGradient id="paint0_linear_436_6084" x1="8.8761" y1="22" x2="35.1239" y2="22" gradientUnits="userSpaceOnUse">
<stop stop-color="#2EA8FA"/>
<stop offset="1" stop-color="#076EB3"/>
</linearGradient>
<linearGradient id="paint1_linear_436_6084" x1="-1.63913e-07" y1="22" x2="44" y2="22" gradientUnits="userSpaceOnUse">
<stop stop-color="#2EA8FA"/>
<stop offset="1" stop-color="#076EB3"/>
</linearGradient>
</defs>
</svg>
