<svg width="44" height="44" viewBox="0 0 44 44" fill="none" xmlns="http://www.w3.org/2000/svg">
<path d="M28.41 15.7974L27.2 14.5874C26.42 13.8074 25.15 13.8074 24.37 14.5874L21.69 17.2674L13 25.9574V29.9974H17.04L25.78 21.2574L28.41 18.6274C29.2 17.8474 29.2 16.5774 28.41 15.7974ZM16.21 27.9974H15V26.7874L23.66 18.1274L24.87 19.3374L16.21 27.9974ZM21 29.9974L25 25.9974H31V29.9974H21Z" fill="black" fill-opacity="0.6"/>
<path d="M8 1H36V-1H8V1ZM43 8V36H45V8H43ZM36 43H8V45H36V43ZM1 36V8H-1V36H1ZM8 43C4.13401 43 1 39.866 1 36H-1C-1 40.9706 3.02944 45 8 45V43ZM43 36C43 39.866 39.866 43 36 43V45C40.9706 45 45 40.9706 45 36H43ZM36 1C39.866 1 43 4.13401 43 8H45C45 3.02944 40.9706 -1 36 -1V1ZM8 -1C3.02944 -1 -1 3.02944 -1 8H1C1 4.13401 4.13401 1 8 1V-1Z" fill="black" fill-opacity="0.6"/>
</svg>
