<svg width="45" height="45" viewBox="0 0 45 45" fill="none" xmlns="http://www.w3.org/2000/svg">
<path d="M34.3001 14.7689L29.8051 10.4406C29.2185 9.90993 28.4497 9.60547 27.6451 9.58508C26.8405 9.56469 26.0562 9.8298 25.4414 10.33L10.6768 24.5472C10.1466 25.0622 9.81638 25.7371 9.74173 26.4587L9.03631 33.046C9.01421 33.2774 9.04539 33.5106 9.12763 33.729C9.20986 33.9475 9.34112 34.1458 9.51206 34.3097C9.66535 34.4562 9.84714 34.572 10.047 34.6506C10.2469 34.7292 10.4609 34.7691 10.6768 34.7679H10.8245L17.6654 34.1676C18.4147 34.0957 19.1156 33.7778 19.6504 33.2671L34.4149 19.0499C34.988 18.4669 35.2977 17.689 35.2762 16.8866C35.2546 16.0841 34.9036 15.3226 34.3001 14.7689V14.7689ZM28.7224 20.0451L24.3258 15.8115L27.5248 12.6521L32.0034 16.9647L28.7224 20.0451Z" fill="url(#paint0_linear_260_1220)"/>
<rect x="0.65332" y="0.675781" width="43" height="43" rx="7.5" stroke="url(#paint1_linear_260_1220)"/>
<defs>
<linearGradient id="paint0_linear_260_1220" x1="9.02942" y1="22.1759" x2="35.2772" y2="22.1759" gradientUnits="userSpaceOnUse">
<stop stop-color="#2EA8FA"/>
<stop offset="1" stop-color="#076EB3"/>
</linearGradient>
<linearGradient id="paint1_linear_260_1220" x1="0.15332" y1="22.1758" x2="44.1533" y2="22.1758" gradientUnits="userSpaceOnUse">
<stop stop-color="#2EA8FA"/>
<stop offset="1" stop-color="#076EB3"/>
</linearGradient>
</defs>
</svg>
