<svg width="16" height="14" viewBox="0 0 16 14" fill="none" xmlns="http://www.w3.org/2000/svg">
<path d="M0.1204 0.714901C0.221695 0.501043 0.381631 0.320342 0.581603 0.193822C0.781574 0.0673011 1.01336 0.000161496 1.24999 0.000213653H14.75C15.2344 0.000213653 15.6719 0.278339 15.8781 0.714901C16.0875 1.15146 16.0219 1.66803 15.6906 2.04178L10 9.02834V13.0002C10 13.3783 9.7875 13.7252 9.44688 13.894C9.10938 14.0627 8.70313 14.0283 8.4 13.8002L6.4 12.3002C6.14687 12.1127 6 11.8158 6 11.5002V9.02834L0.282557 2.04178C0.132711 1.85863 0.0379281 1.63672 0.00922837 1.40183C-0.0194714 1.16694 0.0190907 0.928736 0.120431 0.714901H0.1204Z" fill="black"/>
</svg>
