<svg width="21" height="24" viewBox="0 0 21 24" fill="none" xmlns="http://www.w3.org/2000/svg">
<g opacity="0.5">
<path fill-rule="evenodd" clip-rule="evenodd" d="M1.15332 10.143C1.17039 5.11799 5.25783 1.05823 10.2829 1.07525C15.3079 1.09237 19.3677 5.17981 19.3506 10.2048V10.3079C19.2888 13.5743 17.4649 16.5935 15.2289 18.9531C13.9501 20.2811 12.5221 21.4567 10.9732 22.4566C10.5591 22.8148 9.9448 22.8148 9.53066 22.4566C7.22171 20.9537 5.19523 19.0563 3.5439 16.8511C2.0721 14.9281 1.23647 12.5941 1.15332 10.1739V10.143Z" stroke="black" stroke-width="1.5" stroke-linecap="round" stroke-linejoin="round"/>
<path d="M10.2515 13.2344C11.8621 13.2344 13.1677 11.9287 13.1677 10.3181C13.1677 8.7075 11.8621 7.40186 10.2515 7.40186C8.64085 7.40186 7.33521 8.7075 7.33521 10.3181C7.33521 11.9287 8.64085 13.2344 10.2515 13.2344Z" stroke="black" stroke-width="1.5" stroke-linecap="round" stroke-linejoin="round"/>
</g>
</svg>
