<svg width="27" height="22" viewBox="0 0 27 22" fill="none" xmlns="http://www.w3.org/2000/svg">
<path d="M24.75 0.5H2.25C1.00781 0.5 0 1.50781 0 2.75V3.5H27V2.75C27 1.50781 25.9922 0.5 24.75 0.5ZM0 19.25C0 20.4922 1.00781 21.5 2.25 21.5H24.75C25.9922 21.5 27 20.4922 27 19.25V5H0V19.25ZM16.5 8.375C16.5 8.16875 16.6688 8 16.875 8H23.625C23.8312 8 24 8.16875 24 8.375V9.125C24 9.33125 23.8312 9.5 23.625 9.5H16.875C16.6688 9.5 16.5 9.33125 16.5 9.125V8.375ZM16.5 11.375C16.5 11.1687 16.6688 11 16.875 11H23.625C23.8312 11 24 11.1687 24 11.375V12.125C24 12.3313 23.8312 12.5 23.625 12.5H16.875C16.6688 12.5 16.5 12.3313 16.5 12.125V11.375ZM16.5 14.375C16.5 14.1687 16.6688 14 16.875 14H23.625C23.8312 14 24 14.1687 24 14.375V15.125C24 15.3313 23.8312 15.5 23.625 15.5H16.875C16.6688 15.5 16.5 15.3313 16.5 15.125V14.375ZM8.25 8C9.90469 8 11.25 9.34531 11.25 11C11.25 12.6547 9.90469 14 8.25 14C6.59531 14 5.25 12.6547 5.25 11C5.25 9.34531 6.59531 8 8.25 8ZM3.14531 17.5719C3.53906 16.3672 4.66875 15.5 6 15.5H6.38437C6.96094 15.7391 7.58906 15.875 8.25 15.875C8.91094 15.875 9.54375 15.7391 10.1156 15.5H10.5C11.8313 15.5 12.9609 16.3672 13.3547 17.5719C13.5047 18.0359 13.1109 18.5 12.6234 18.5H3.87656C3.38906 18.5 2.99531 18.0312 3.14531 17.5719Z" fill="black" fill-opacity="0.6"/>
</svg>
