<svg width="211" height="210" viewBox="0 0 211 210" fill="none" xmlns="http://www.w3.org/2000/svg">
<g opacity="0.6">
<path d="M171.507 33.9893L195.65 75.8051V47.9283L171.507 33.9893Z" fill="#E9F6FF"/>
<path d="M171.507 165.91L195.65 151.971V124.091L171.507 165.91Z" fill="#E9F6FF"/>
<path d="M15.4426 124.091V151.971L39.5864 165.91L15.4426 124.091Z" fill="#E9F6FF"/>
<path d="M15.4426 47.9286V75.8054L39.5851 33.9883L15.4426 47.9286Z" fill="#E9F6FF"/>
<path d="M54.253 10.2653L52.7968 9.4248L0.533691 99.9477L52.7968 190.473L54.253 189.633L2.47504 99.9477L54.253 10.2653Z" fill="#C8DFF5"/>
<path d="M158.297 9.4248L156.841 10.2653L208.617 99.9477L156.841 189.633L158.297 190.473L210.559 99.9477L158.297 9.4248Z" fill="#C8DFF5"/>
<path d="M69.0459 163.171L68.8683 162.863L67.4121 163.704L68.0749 164.852H69.4006V163.171H69.0459Z" fill="#C8DFF5"/>
<path d="M45.3318 122.095L43.8758 122.936L44.7162 124.392L46.1721 123.551L45.3318 122.095ZM50.3752 130.831L48.9192 131.672L49.7596 133.128L51.2158 132.287L50.3752 130.831ZM43.6501 119.183L42.1945 120.024L43.0358 121.48L44.4908 120.639L43.6501 119.183ZM47.0131 125.007L45.5572 125.848L46.3975 127.304L47.8535 126.463L47.0131 125.007ZM48.6935 127.919L47.2385 128.76L48.0792 130.216L49.5345 129.375L48.6935 127.919ZM41.9694 116.271L40.5135 117.112L41.3538 118.568L42.8101 117.728L41.9694 116.271ZM40.2881 113.359L38.8321 114.2L39.6725 115.656L41.1287 114.815L40.2881 113.359ZM36.926 107.535L35.4698 108.376L36.3104 109.832L37.7664 108.991L36.926 107.535ZM33.563 101.711L32.1074 102.552L32.9481 104.008L34.4037 103.167L33.563 101.711ZM38.6064 110.447L37.1508 111.288L37.9918 112.744L39.4474 111.903L38.6064 110.447ZM35.2447 104.623L33.7888 105.464L34.6291 106.92L36.085 106.079L35.2447 104.623ZM63.8246 154.127L62.369 154.967L63.2099 156.423L64.6656 155.583L63.8246 154.127ZM62.1439 151.215L60.6876 152.056L61.5283 153.512L62.9842 152.671L62.1439 151.215ZM65.5059 157.039L64.05 157.879L64.8904 159.335L66.3466 158.495L65.5059 157.039ZM60.4625 148.303L59.0063 149.144L59.847 150.6L61.3029 149.759L60.4625 148.303ZM67.1873 159.951L65.7313 160.791L66.5717 162.248L68.0279 161.407L67.1873 159.951ZM53.7372 136.655L52.2819 137.495L53.1229 138.952L54.5779 138.111L53.7372 136.655ZM55.4189 139.567L53.9629 140.408L54.8033 141.864L56.2592 141.023L55.4189 139.567ZM58.7812 145.391L57.3256 146.232L58.1663 147.688L59.6219 146.847L58.7812 145.391ZM52.0565 133.743L50.6006 134.584L51.4409 136.04L52.8972 135.199L52.0565 133.743ZM57.1002 142.479L55.6443 143.32L56.4846 144.776L57.9405 143.935L57.1002 142.479Z" fill="#C8DFF5"/>
<path d="M32.723 99.6403L31.2668 98.7998L30.604 99.9478L31.2668 101.096L32.723 100.255L32.5454 99.9478L32.723 99.6403Z" fill="#C8DFF5"/>
<path d="M42.1945 79.8731L43.6504 80.7136L44.4908 79.2576L43.0349 78.4171L42.1945 79.8731ZM40.5135 82.7846L41.9688 83.6254L42.8095 82.1696L41.3545 81.3288L40.5135 82.7846ZM45.5572 74.0492L47.0122 74.8901L47.8532 73.4343L46.3978 72.5934L45.5572 74.0492ZM43.8758 76.9613L45.3318 77.8017L46.1721 76.3457L44.7162 75.5053L43.8758 76.9613ZM47.2379 71.1376L48.6938 71.978L49.5345 70.5222L48.0782 69.6817L47.2379 71.1376ZM32.1074 97.3438L33.5634 98.1843L34.4037 96.7284L32.9478 95.888L32.1074 97.3438ZM33.7888 94.432L35.2447 95.2724L36.085 93.8166L34.6291 92.9762L33.7888 94.432ZM38.8321 85.6966L40.2881 86.5371L41.1287 85.0813L39.6725 84.2408L38.8321 85.6966ZM35.4695 91.5203L36.9251 92.3608L37.7661 90.9048L36.3104 90.0643L35.4695 91.5203ZM37.1508 88.6085L38.6068 89.4489L39.4474 87.9929L37.9912 87.1524L37.1508 88.6085ZM53.9629 59.4904L55.4189 60.3309L56.2592 58.875L54.8033 58.0346L53.9629 59.4904ZM60.6877 47.843L62.143 48.6839L62.984 47.228L61.5287 46.3872L60.6877 47.843ZM62.3687 44.9316L63.8246 45.772L64.6653 44.316L63.2091 43.4755L62.3687 44.9316ZM64.05 42.0197L65.506 42.8602L66.3466 41.4043L64.8904 40.5639L64.05 42.0197ZM59.0063 50.7551L60.4626 51.5955L61.3029 50.1397L59.847 49.2992L59.0063 50.7551ZM66.5723 37.6519L65.7314 39.1077L67.1867 39.9486L68.0273 38.4927L66.5723 37.6519ZM57.325 53.6669L58.7812 54.5074L59.6216 53.0516L58.1657 52.2111L57.325 53.6669ZM52.2816 62.4023L53.7375 63.2427L54.5779 61.7869L53.122 60.9464L52.2816 62.4023ZM48.9193 68.226L50.3752 69.0664L51.2159 67.6104L49.7596 66.77L48.9193 68.226ZM50.6006 65.3139L52.0559 66.1548L52.8966 64.699L51.4416 63.8581L50.6006 65.3139ZM55.6443 56.5788L57.0993 57.4192L57.9406 55.9632L56.4849 55.1227L55.6443 56.5788Z" fill="#C8DFF5"/>
<path d="M68.0756 35.0483L67.4121 36.1963L68.8683 37.0368L69.0453 36.7286H69.4006V35.0483H68.0756Z" fill="#C8DFF5"/>
<path d="M94.6177 36.7288H96.2987V35.0479H94.6177L94.6177 36.7288ZM91.2556 36.7288H92.9363V35.0479H91.2556V36.7288ZM97.98 36.7288H99.6614V35.0479H97.98V36.7288ZM101.342 36.7288H103.024V35.0479H101.342L101.342 36.7288ZM87.8932 36.7288H89.5743V35.0479H87.8932V36.7288ZM74.4438 36.7288H76.1252V35.0479H74.4438V36.7288ZM71.0818 36.7288H72.7631V35.0479H71.0818V36.7288ZM84.5306 36.7288H86.2119V35.0479H84.5306V36.7288ZM104.704 36.7288H106.386V35.0479H104.704V36.7288ZM77.8062 36.7288H79.4875V35.0479H77.8062V36.7288ZM81.1686 36.7288H82.8496V35.0479H81.1686V36.7288ZM128.241 36.7288H129.922V35.0479H128.241V36.7288ZM131.603 36.7288H133.284V35.0479H131.603V36.7288ZM124.878 36.7288H126.559V35.0479H124.878V36.7288ZM108.067 36.7288H109.748V35.0479H108.067L108.067 36.7288ZM138.327 35.0479V36.7288H140.009V35.0479H138.327ZM134.965 36.7288H136.646V35.0479H134.965L134.965 36.7288ZM121.516 36.7288H123.197V35.0479H121.516L121.516 36.7288ZM114.792 36.7288H116.473V35.0479H114.792V36.7288ZM111.429 36.7288H113.11V35.0479H111.429V36.7288ZM118.154 36.7288H119.835V35.0479H118.154V36.7288Z" fill="#C8DFF5"/>
<path d="M143.015 35.0483H141.69V36.7286H142.046L142.223 37.0368L143.679 36.1963L143.015 35.0483Z" fill="#C8DFF5"/>
<path d="M144.519 37.6519L143.063 38.4923L143.904 39.9481L145.36 39.1077L144.519 37.6519ZM161.332 66.7698L159.876 67.6102L160.716 69.0662L162.172 68.2258L161.332 66.7698ZM156.287 58.0344L154.832 58.8748L155.673 60.3309L157.128 59.4904L156.287 58.0344ZM157.969 60.9461L156.514 61.7869L157.354 63.2428L158.81 62.4018L157.969 60.9461ZM159.65 63.8581L158.194 64.6985L159.035 66.1544L160.491 65.3139L159.65 63.8581ZM154.607 55.1225L153.151 55.963L153.991 57.4191L155.447 56.5786L154.607 55.1225ZM146.201 40.5637L144.745 41.4042L145.585 42.86L147.041 42.0195L146.201 40.5637ZM147.882 43.4754L146.426 44.3158L147.267 45.7719L148.723 44.9314L147.882 43.4754ZM151.244 49.2991L149.788 50.1395L150.629 51.5954L152.085 50.7549L151.244 49.2991ZM149.563 46.3872L148.107 47.2277L148.948 48.6837L150.403 47.8432L149.563 46.3872ZM152.926 52.2109L151.47 53.0514L152.31 54.5072L153.766 53.6667L152.926 52.2109ZM173.1 87.1525L171.644 87.9929L172.485 89.4488L173.941 88.6083L173.1 87.1525ZM174.782 90.0641L173.325 90.9046L174.166 92.3606L175.622 91.5201L174.782 90.0641ZM171.418 84.2404L169.963 85.0813L170.804 86.5371L172.259 85.6962L171.418 84.2404ZM163.012 69.6814L161.557 70.5222L162.398 71.9781L163.853 71.1372L163.012 69.6814ZM176.463 92.976L175.007 93.8164L175.847 95.2722L177.303 94.4318L176.463 92.976ZM178.143 95.8876L176.688 96.7285L177.529 98.1843L178.984 97.3434L178.143 95.8876ZM166.375 75.5052L164.919 76.3457L165.76 77.8015L167.216 76.9611L166.375 75.5052ZM164.694 72.5932L163.238 73.4341L164.079 74.8899L165.534 74.049L164.694 72.5932ZM169.738 81.3288L168.282 82.1693L169.122 83.6251L170.578 82.7846L169.738 81.3288ZM168.057 78.4169L166.601 79.2574L167.441 80.7134L168.897 79.8729L168.057 78.4169Z" fill="#C8DFF5"/>
<path d="M179.825 98.7998L178.369 99.6403L178.546 99.9478L178.369 100.255L179.825 101.096L180.488 99.9478L179.825 98.7998Z" fill="#C8DFF5"/>
<path d="M154.832 141.023L156.288 141.864L157.129 140.408L155.673 139.567L154.832 141.023ZM151.47 146.847L152.926 147.688L153.766 146.232L152.31 145.391L151.47 146.847ZM153.151 143.935L154.607 144.776L155.447 143.32L153.991 142.479L153.151 143.935ZM158.195 135.199L159.65 136.04L160.491 134.584L159.036 133.743L158.195 135.199ZM156.514 138.111L157.969 138.951L158.81 137.495L157.354 136.655L156.514 138.111ZM143.063 161.407L144.519 162.248L145.36 160.791L143.904 159.951L143.063 161.407ZM144.745 158.495L146.201 159.335L147.041 157.879L145.585 157.039L144.745 158.495ZM148.107 152.671L149.563 153.512L150.404 152.056L148.948 151.215L148.107 152.671ZM146.426 155.583L147.882 156.423L148.722 154.967L147.267 154.127L146.426 155.583ZM149.788 149.759L151.244 150.6L152.085 149.144L150.629 148.303L149.788 149.759ZM163.238 126.463L164.694 127.304L165.534 125.848L164.079 125.007L163.238 126.463ZM173.325 108.991L174.782 109.832L175.622 108.376L174.166 107.535L173.325 108.991ZM169.963 114.815L171.419 115.656L172.26 114.2L170.804 113.359L169.963 114.815ZM171.645 111.903L173.1 112.744L173.941 111.288L172.485 110.447L171.645 111.903ZM177.529 101.711L176.688 103.167L178.144 104.008L178.985 102.552L177.529 101.711ZM175.007 106.079L176.463 106.92L177.303 105.464L175.847 104.623L175.007 106.079ZM166.601 120.639L168.057 121.48L168.897 120.024L167.441 119.183L166.601 120.639ZM161.557 129.375L163.013 130.216L163.854 128.76L162.397 127.919L161.557 129.375ZM168.282 117.728L169.738 118.568L170.578 117.112L169.122 116.271L168.282 117.728ZM164.92 123.551L166.375 124.392L167.216 122.936L165.761 122.095L164.92 123.551ZM159.876 132.287L161.332 133.128L162.172 131.672L160.716 130.831L159.876 132.287Z" fill="#C8DFF5"/>
<path d="M142.223 162.863L142.045 163.171H141.69V164.852H143.016L143.679 163.704L142.223 162.863Z" fill="#C8DFF5"/>
<path d="M87.8938 164.852H89.5748V163.171H87.8938V164.852ZM84.5317 164.852H86.2125V163.171H84.5317L84.5317 164.852ZM91.2561 164.852H92.9372V163.171H91.2561L91.2561 164.852ZM101.343 164.852H103.024V163.171H101.343V164.852ZM97.9805 164.852H99.6619V163.171H97.9805V164.852ZM94.6185 164.852H96.2992V163.171H94.6185L94.6185 164.852ZM71.0823 164.852H72.7636V163.171H71.0823L71.0823 164.852ZM74.4446 164.852H76.126V163.171H74.4446V164.852ZM77.8067 164.852H79.488V163.171H77.8067L77.8067 164.852ZM81.169 164.852H82.8504V163.171H81.169V164.852ZM121.517 164.852H123.197V163.171H121.517V164.852ZM124.879 164.852H126.56V163.171H124.879L124.879 164.852ZM138.328 163.171V164.852H140.009V163.171H138.328ZM128.241 164.852H129.923V163.171H128.241V164.852ZM134.966 164.852H136.647V163.171H134.966V164.852ZM131.604 164.852H133.285V163.171H131.604V164.852ZM114.792 164.852H116.473V163.171H114.792V164.852ZM111.43 164.852H113.111V163.171H111.43V164.852ZM118.154 164.852H119.835V163.171H118.154V164.852ZM108.067 164.852H109.749V163.171H108.067V164.852ZM104.705 164.852H106.387V163.171H104.705L104.705 164.852Z" fill="#C8DFF5"/>
<path d="M152.347 185.655H150.666V190.053H152.347V185.655Z" fill="#C8DFF5"/>
<path d="M146.574 188.216L144.893 188.219L144.896 190.055L146.577 190.053L146.574 188.216Z" fill="#C8DFF5"/>
<path d="M141.173 185.659H139.492V190.047H141.173V185.659Z" fill="#C8DFF5"/>
<path d="M135.402 188.217H133.721V190.05H135.402V188.217Z" fill="#C8DFF5"/>
<path d="M130.001 185.655H128.32V190.049H130.001V185.655Z" fill="#C8DFF5"/>
<path d="M122.554 188.223L122.551 190.052L124.232 190.055L124.235 188.226L122.554 188.223Z" fill="#C8DFF5"/>
<path d="M118.827 185.653L117.146 185.656L117.152 190.05L118.833 190.048L118.827 185.653Z" fill="#C8DFF5"/>
<path d="M113.057 188.223L111.376 188.225L111.379 190.051L113.06 190.049L113.057 188.223Z" fill="#C8DFF5"/>
<path d="M107.66 185.655H105.979V190.044H107.66V185.655Z" fill="#C8DFF5"/>
<path d="M101.888 188.217L100.207 188.224L100.215 190.057L101.896 190.049L101.888 188.217Z" fill="#C8DFF5"/>
<path d="M94.8046 185.657L94.7981 190.047L96.479 190.05L96.4855 185.659L94.8046 185.657Z" fill="#C8DFF5"/>
<path d="M89.0376 188.22L89.0352 190.049L90.7161 190.051L90.7186 188.222L89.0376 188.22Z" fill="#C8DFF5"/>
<path d="M60.4268 9.8457H58.7458V14.2442H60.4268V9.8457Z" fill="#C8DFF5"/>
<path d="M66.1958 9.8438L64.5149 9.84668L64.518 11.6823L66.199 11.6795L66.1958 9.8438Z" fill="#C8DFF5"/>
<path d="M71.5999 9.85156H69.9189V14.2392H71.5999V9.85156Z" fill="#C8DFF5"/>
<path d="M77.3716 9.84766H75.6907V11.6801H77.3716V9.84766Z" fill="#C8DFF5"/>
<path d="M82.7718 9.84766H81.0908V14.2429H82.7718V9.84766Z" fill="#C8DFF5"/>
<path d="M86.861 9.84389L86.8579 11.6738L88.5388 11.6767L88.5419 9.84674L86.861 9.84389Z" fill="#C8DFF5"/>
<path d="M93.8582 10.0332H92.1772V14.4285H93.8582V10.0332Z" fill="#C8DFF5"/>
<path d="M99.6143 10.0801H97.9333V11.9068H99.6143V10.0801Z" fill="#C8DFF5"/>
<path d="M105.114 9.85449H103.433V14.2434H105.114V9.85449Z" fill="#C8DFF5"/>
<path d="M110.878 9.84124L109.197 9.84863L109.205 11.6811L110.886 11.6737L110.878 9.84124Z" fill="#C8DFF5"/>
<path d="M114.613 9.84747L114.607 14.2383L116.288 14.2404L116.294 9.84961L114.613 9.84747Z" fill="#C8DFF5"/>
<path d="M120.377 9.84843L120.375 11.6777L122.055 11.68L122.058 9.85071L120.377 9.84843Z" fill="#C8DFF5"/>
<path d="M171.045 1.68066H168.993C166.813 1.68079 164.653 2.11046 162.639 2.94512C160.624 3.77977 158.793 5.00308 157.252 6.5452C155.71 8.08731 154.487 9.91803 153.652 11.9328C152.818 13.9476 152.388 16.107 152.389 18.2877V30.8527H187.655V18.2877C187.655 16.1066 187.225 13.9468 186.391 11.9317C185.556 9.91665 184.332 8.08574 182.79 6.54357C181.248 5.00141 179.416 3.7782 177.401 2.94381C175.386 2.10942 173.226 1.6802 171.045 1.68066Z" fill="#6AB0E5"/>
<path d="M157.205 11.6328H155.151C154.677 11.6328 154.213 11.666 153.748 11.7021C152.85 13.7813 152.387 16.0225 152.389 18.2873V30.8524H173.809V28.2413C173.809 26.0605 173.38 23.901 172.546 21.8861C171.712 19.8712 170.489 18.0403 168.947 16.4981C167.405 14.9558 165.575 13.7323 163.56 12.8976C161.545 12.0628 159.386 11.633 157.205 11.6328Z" fill="#5BA1E1"/>
<path d="M168.994 1.68066H53.9697C51.789 1.68074 49.6296 2.11037 47.6149 2.94501C45.6002 3.77965 43.7697 5.00295 42.2278 6.54508C40.6858 8.0872 39.4628 9.91794 38.6284 11.9328C37.7941 13.9476 37.3648 16.107 37.365 18.2877V140.298H95.1211C90.7161 140.298 86.4915 142.048 83.3766 145.163C80.2617 148.277 78.5116 152.502 78.5114 156.907V160.091C78.5117 164.496 80.2618 168.721 83.3767 171.836C86.4916 174.95 90.7161 176.7 95.1211 176.7H135.809C137.989 176.7 140.149 176.27 142.164 175.435C144.179 174.601 146.009 173.377 147.551 171.835C149.093 170.293 150.316 168.462 151.151 166.447C151.985 164.432 152.414 162.272 152.414 160.091V39.935H152.389V18.2877C152.389 16.107 152.818 13.9476 153.652 11.9328C154.487 9.91803 155.71 8.08731 157.252 6.5452C158.794 5.00309 160.624 3.77978 162.639 2.94512C164.653 2.11046 166.813 1.6808 168.994 1.68066Z" fill="white"/>
<path d="M152.389 18.2873C152.388 15.9966 152.863 13.7305 153.783 11.6328H53.9697C51.7889 11.633 49.6295 12.0627 47.6147 12.8975C45.6 13.7323 43.7694 14.9557 42.2275 16.498C40.6856 18.0402 39.4626 19.8711 38.6283 21.886C37.7939 23.9009 37.3647 26.0605 37.365 28.2413V140.298H95.1211C91.8925 140.298 88.7341 141.24 86.0326 143.008C83.3311 144.776 81.2036 147.293 79.9107 150.251L78.8602 163.475C79.6385 167.212 81.6801 170.567 84.6416 172.976C87.6031 175.384 91.3038 176.699 95.1211 176.7H135.809C137.989 176.699 140.149 176.27 142.164 175.435C144.179 174.6 146.009 173.377 147.551 171.835C149.093 170.292 150.316 168.461 151.151 166.446C151.985 164.431 152.414 162.272 152.414 160.091V49.8871H152.389L152.389 18.2873Z" fill="#E9F6FF"/>
<path d="M95.1212 140.298C90.7162 140.298 86.4916 142.048 83.3767 145.163C80.2618 148.277 78.5117 152.502 78.5115 156.907V160.092C78.5118 164.497 80.2619 168.721 83.3768 171.836C86.4917 174.95 90.7162 176.7 95.1212 176.7H135.809C139.752 176.697 143.566 175.29 146.566 172.731C149.566 170.172 151.557 166.628 152.182 162.734V140.298H95.1212Z" fill="#DEF4FC"/>
<path d="M95.1212 140.298C90.7162 140.298 86.4916 142.048 83.3767 145.163C80.2618 148.277 78.5117 152.502 78.5115 156.907V160.092C78.5118 164.497 80.2619 168.721 83.3768 171.836C86.4917 174.95 90.7162 176.7 95.1212 176.7H135.809C138.556 176.701 141.26 176.018 143.677 174.713C146.094 173.408 148.149 171.522 149.655 169.224L95.1212 140.298Z" fill="#AFD8F9"/>
<path d="M78.5114 160.092V156.907C78.5117 152.502 80.2617 148.277 83.3766 145.163C86.4915 142.048 90.7161 140.298 95.1211 140.298H18.7282C16.5474 140.299 14.3879 140.728 12.3731 141.563C10.3583 142.398 8.52762 143.621 6.98564 145.163C5.44366 146.706 4.22055 148.537 3.38614 150.551C2.55173 152.566 2.12236 154.726 2.12256 156.907V160.092C2.12221 164.496 3.87153 168.72 6.98569 171.835C10.0999 174.95 14.3238 176.7 18.7282 176.7H95.1211C90.7162 176.7 86.4916 174.95 83.3767 171.836C80.2618 168.721 78.5117 164.497 78.5114 160.092Z" fill="#DEF4FC"/>
<path d="M18.7282 140.298C16.5474 140.299 14.3879 140.728 12.3731 141.563C10.3583 142.398 8.52762 143.621 6.98564 145.163C5.44366 146.706 4.22054 148.537 3.38613 150.551C2.55173 152.566 2.12236 154.726 2.12256 156.907V160.092C2.12323 164.199 3.64556 168.16 6.39564 171.211C9.14572 174.261 12.9285 176.185 17.0136 176.61C17.5922 176.664 18.1767 176.7 18.7668 176.7C23.6988 176.7 28.4288 174.74 31.9165 171.253C35.4042 167.766 37.364 163.036 37.365 158.104V140.298H18.7282Z" fill="#E9F6FF"/>
<path d="M95.121 175.02C91.1631 175.015 87.3686 173.441 84.5699 170.643C81.7711 167.844 80.1967 164.05 80.192 160.092V156.907C80.1967 152.949 81.7711 149.155 84.5698 146.356C87.3686 143.558 91.1631 141.984 95.121 141.98C95.5668 141.98 95.9944 141.802 96.3096 141.487C96.6248 141.172 96.8019 140.744 96.8019 140.299C96.8019 139.853 96.6248 139.425 96.3096 139.11C95.9944 138.795 95.5668 138.618 95.121 138.618H18.7278C13.8793 138.624 9.23104 140.553 5.80289 143.981C2.37473 147.41 0.446574 152.059 0.441406 156.907V160.092C0.446593 164.941 2.37476 169.589 5.80292 173.018C9.23107 176.447 13.8793 178.375 18.7278 178.381H95.121C95.5651 178.379 95.9901 178.201 96.3033 177.886C96.6164 177.571 96.7921 177.145 96.7921 176.7C96.7921 176.256 96.6164 175.83 96.3033 175.515C95.9901 175.2 95.5651 175.022 95.121 175.02V175.02ZM18.7278 175.02C14.7705 175.015 10.9768 173.44 8.1789 170.642C5.38097 167.843 3.80731 164.049 3.80314 160.092V156.907C3.80731 152.95 5.38096 149.156 8.17889 146.357C10.9768 143.559 14.7705 141.984 18.7278 141.98H84.5635C82.1741 143.667 80.2247 145.904 78.8791 148.502C77.5334 151.099 76.8308 153.982 76.8303 156.907V160.092C76.8308 163.017 77.5334 165.9 78.8791 168.498C80.2247 171.095 82.1741 173.332 84.5635 175.02H18.7278Z" fill="#2481D7"/>
<path d="M168.994 1.94311e-05H53.9698C49.1216 0.00585575 44.4736 1.93456 41.0455 5.36301C37.6175 8.79146 35.6893 13.4397 35.6841 18.288V140.298C35.6841 140.744 35.8612 141.172 36.1765 141.487C36.4917 141.802 36.9193 141.979 37.3651 141.979H84.5637C82.1744 143.667 80.2249 145.904 78.8793 148.501C77.5336 151.099 76.831 153.982 76.8305 156.907V160.092C76.8362 164.941 78.7651 169.59 82.1941 173.019C85.6231 176.447 90.2721 178.376 95.1212 178.381H135.809C140.657 178.375 145.305 176.446 148.734 173.018C152.162 169.589 154.09 164.94 154.095 160.092V39.9353C154.095 39.8386 154.087 39.742 154.07 39.6468V18.288C154.074 14.331 155.647 10.5372 158.445 7.73896C161.243 4.94074 165.037 3.36659 168.994 3.36187C169.44 3.36187 169.867 3.18478 170.182 2.86954C170.498 2.5543 170.675 2.12675 170.675 1.68094C170.675 1.23512 170.498 0.807573 170.182 0.492336C169.867 0.177099 169.44 0 168.994 0L168.994 1.94311e-05ZM150.708 18.288V39.9353C150.708 40.032 150.716 40.1286 150.733 40.2238V160.092C150.729 164.049 149.156 167.843 146.358 170.642C143.56 173.44 139.766 175.015 135.809 175.019H95.1212C91.1634 175.015 87.3688 173.441 84.5701 170.643C81.7713 167.844 80.1969 164.05 80.1922 160.092V156.907C80.1969 152.949 81.7713 149.155 84.5701 146.356C87.3688 143.558 91.1634 141.984 95.1212 141.979C95.567 141.979 95.9946 141.802 96.3098 141.487C96.625 141.172 96.8021 140.744 96.8021 140.299C96.8021 139.853 96.625 139.425 96.3098 139.11C95.9946 138.795 95.567 138.618 95.1212 138.618H39.0461V18.2879C39.0503 14.331 40.6239 10.5372 43.4217 7.73904C46.2194 4.94084 50.0129 3.36667 53.9698 3.36187H158.439C156.05 5.04977 154.101 7.28629 152.756 9.88356C151.411 12.4808 150.708 15.363 150.708 18.288Z" fill="#2481D7"/>
<path d="M171.045 0H168.994C164.145 0.00578418 159.497 1.93447 156.069 5.36293C152.641 8.7914 150.713 13.4397 150.708 18.2879V30.8529C150.708 31.2988 150.885 31.7263 151.2 32.0415C151.515 32.3568 151.943 32.5338 152.389 32.5339H187.655C188.101 32.5338 188.528 32.3568 188.843 32.0415C189.159 31.7263 189.336 31.2988 189.336 30.8529V18.2879C189.33 13.439 187.401 8.79036 183.972 5.36189C180.543 1.93342 175.894 0.00511404 171.045 0ZM185.974 29.172H154.07V18.2879C154.074 14.3309 155.647 10.5372 158.445 7.73894C161.243 4.94072 165.037 3.36657 168.994 3.36185H171.045C175.003 3.36592 178.797 4.93969 181.596 7.73791C184.395 10.5361 185.969 14.3303 185.974 18.2879V29.172Z" fill="#2481D7"/>
<path d="M133.167 88.7065H57.0757V90.3875H133.167V88.7065Z" fill="#2481D7"/>
<path d="M133.167 100.7H57.0757V102.381H133.167V100.7Z" fill="#2481D7"/>
<path d="M133.167 112.693H57.0757V114.374H133.167V112.693Z" fill="#2481D7"/>
<path d="M133.167 124.688H57.0757V126.368H133.167V124.688Z" fill="#2481D7"/>
<path d="M66.6351 32.0171H58.9684C58.7468 32.0158 58.5271 32.0582 58.3219 32.1421C58.1168 32.226 57.9303 32.3496 57.7731 32.5058C57.6159 32.662 57.4912 32.8478 57.406 33.0524C57.3209 33.257 57.2771 33.4764 57.2771 33.698C57.2771 33.9196 57.3209 34.1391 57.406 34.3437C57.4912 34.5483 57.6159 34.7341 57.7731 34.8903C57.9303 35.0465 58.1168 35.1701 58.3219 35.254C58.5271 35.3378 58.7468 35.3803 58.9684 35.3789H66.6351C68.4066 35.3789 70.1056 36.0827 71.3583 37.3353C72.6109 38.588 73.3147 40.287 73.3147 42.0585C73.3147 43.83 72.6109 45.529 71.3583 46.7817C70.1056 48.0343 68.4066 48.7381 66.6351 48.7381H58.9684C58.7468 48.7368 58.5272 48.7793 58.3221 48.8632C58.117 48.9471 57.9306 49.0707 57.7734 49.2269C57.6163 49.3831 57.4916 49.5689 57.4065 49.7734C57.3214 49.978 57.2776 50.1974 57.2776 50.419C57.2776 50.6405 57.3214 50.8599 57.4065 51.0645C57.4916 51.2691 57.6163 51.4548 57.7734 51.611C57.9306 51.7673 58.117 51.8909 58.3221 51.9748C58.5272 52.0587 58.7468 52.1012 58.9684 52.0999H66.6351C69.2963 52.0969 71.8474 51.0376 73.7281 49.1548C75.6088 47.272 76.6652 44.7197 76.6652 42.0585C76.6652 39.3973 75.6088 36.845 73.7281 34.9622C71.8474 33.0794 69.2963 32.0201 66.6351 32.0171V32.0171Z" fill="#2481D7"/>
<path d="M58.9684 32.0171C58.5226 32.0171 58.095 32.1942 57.7798 32.5094C57.4645 32.8246 57.2874 33.2522 57.2874 33.698V61.8574C57.2869 62.0785 57.3301 62.2974 57.4144 62.5017C57.4986 62.706 57.6224 62.8917 57.7785 63.0481C57.9346 63.2045 58.1201 63.3287 58.3242 63.4133C58.5284 63.498 58.7472 63.5416 58.9682 63.5416C59.1892 63.5416 59.4081 63.498 59.6122 63.4133C59.8164 63.3287 60.0018 63.2045 60.1579 63.0481C60.3141 62.8917 60.4378 62.706 60.5221 62.5017C60.6064 62.2974 60.6495 62.0785 60.6491 61.8574V33.698C60.6491 33.2522 60.472 32.8247 60.1568 32.5095C59.8416 32.1943 59.4141 32.0172 58.9684 32.0171ZM89.2477 70.9045L67.5697 49.2303C67.4137 49.0737 67.2284 48.9495 67.0243 48.8647C66.8202 48.7798 66.6014 48.7361 66.3804 48.7359C66.1594 48.7357 65.9406 48.7791 65.7364 48.8636C65.5322 48.9481 65.3466 49.072 65.1904 49.2283C65.0341 49.3846 64.9102 49.5702 64.8258 49.7744C64.7413 49.9786 64.698 50.1975 64.6982 50.4185C64.6984 50.6395 64.7422 50.8583 64.8271 51.0623C64.912 51.2664 65.0363 51.4517 65.1929 51.6076L86.8708 73.2818C87.0269 73.4381 87.2122 73.5621 87.4162 73.6467C87.6202 73.7314 87.8389 73.775 88.0598 73.7751C88.2806 73.7751 88.4993 73.7317 88.7034 73.6472C88.9075 73.5627 89.0929 73.4388 89.249 73.2826C89.4052 73.1264 89.529 72.941 89.6135 72.7369C89.6979 72.5328 89.7413 72.3141 89.7412 72.0932C89.7411 71.8724 89.6974 71.6537 89.6127 71.4497C89.528 71.2457 89.404 71.0605 89.2477 70.9044V70.9045Z" fill="#2481D7"/>
<path d="M89.8259 52.2522C89.5106 51.9369 89.0831 51.7598 88.6372 51.7598C88.1914 51.7597 87.7638 51.9368 87.4485 52.2519L68.7912 70.9047C68.6348 71.0607 68.5108 71.246 68.4261 71.45C68.3414 71.654 68.2977 71.8727 68.2976 72.0935C68.2975 72.3144 68.3409 72.5331 68.4253 72.7372C68.5098 72.9413 68.6336 73.1267 68.7898 73.2829C68.9459 73.4391 69.1314 73.563 69.3354 73.6475C69.5395 73.732 69.7582 73.7754 69.9791 73.7753C70.1999 73.7753 70.4186 73.7316 70.6226 73.647C70.8266 73.5624 71.0119 73.4383 71.168 73.282L89.8256 54.6293C89.9817 54.4732 90.1055 54.2879 90.19 54.084C90.2745 53.8801 90.318 53.6615 90.3181 53.4408C90.3181 53.2201 90.2747 53.0015 90.1902 52.7975C90.1058 52.5936 89.982 52.4083 89.8259 52.2522Z" fill="#2481D7"/>
<path d="M122.656 47.4025V40.3037H111.682V47.4025H104.582V58.3751H111.682V65.4866H122.656V58.3751H129.765V47.4025H122.656Z" fill="#6AB0E5"/>
<path d="M122.959 47.4025H122.656V40.3037H111.682V47.4025H104.582V58.3751H111.682V58.6807L122.959 47.4025Z" fill="#5BA1E1"/>
<path d="M129.765 46.1419H123.916V40.3037C123.916 40.1381 123.884 39.9742 123.821 39.8212C123.757 39.6682 123.664 39.5293 123.547 39.4122C123.43 39.2951 123.291 39.2023 123.138 39.1389C122.985 39.0756 122.821 39.043 122.656 39.043H111.682C111.517 39.043 111.353 39.0756 111.2 39.1389C111.047 39.2023 110.908 39.2951 110.791 39.4122C110.674 39.5293 110.581 39.6682 110.518 39.8212C110.454 39.9742 110.422 40.1381 110.422 40.3037V46.1419H104.582C104.416 46.1419 104.252 46.1745 104.1 46.2379C103.947 46.3012 103.808 46.3941 103.691 46.5111C103.573 46.6282 103.481 46.7672 103.417 46.9201C103.354 47.0731 103.321 47.237 103.321 47.4026V58.3752C103.321 58.5407 103.354 58.7047 103.417 58.8576C103.481 59.0106 103.573 59.1496 103.691 59.2666C103.808 59.3837 103.947 59.4766 104.1 59.5399C104.252 59.6033 104.416 59.6359 104.582 59.6359H110.422V65.4869C110.422 65.6524 110.454 65.8164 110.518 65.9693C110.581 66.1223 110.674 66.2613 110.791 66.3783C110.908 66.4954 111.047 66.5882 111.2 66.6516C111.353 66.7149 111.517 66.7475 111.682 66.7475H122.656C122.821 66.7475 122.985 66.7149 123.138 66.6516C123.291 66.5882 123.43 66.4954 123.547 66.3783C123.664 66.2613 123.757 66.1223 123.82 65.9693C123.884 65.8164 123.916 65.6524 123.916 65.4869V59.6359H129.765C129.931 59.6359 130.095 59.6033 130.248 59.5399C130.401 59.4765 130.54 59.3837 130.657 59.2666C130.774 59.1495 130.867 59.0106 130.93 58.8576C130.993 58.7047 131.026 58.5407 131.026 58.3752V47.4026C131.026 47.2371 130.993 47.0731 130.93 46.9202C130.867 46.7672 130.774 46.6282 130.657 46.5112C130.54 46.3941 130.401 46.3012 130.248 46.2379C130.095 46.1745 129.931 46.1419 129.765 46.1419ZM128.504 57.1145H122.656C122.49 57.1145 122.326 57.1471 122.173 57.2104C122.02 57.2738 121.881 57.3666 121.764 57.4837C121.647 57.6008 121.554 57.7398 121.491 57.8927C121.428 58.0457 121.395 58.2096 121.395 58.3752V64.2262H112.943V58.3751C112.943 58.2096 112.91 58.0456 112.847 57.8927C112.784 57.7397 112.691 57.6007 112.574 57.4837C112.457 57.3666 112.318 57.2737 112.165 57.2104C112.012 57.147 111.848 57.1144 111.682 57.1144H105.843V48.6633H111.682C111.848 48.6633 112.012 48.6307 112.165 48.5673C112.318 48.504 112.457 48.4111 112.574 48.2941C112.691 48.177 112.784 48.038 112.847 47.885C112.91 47.7321 112.943 47.5681 112.943 47.4026V41.5643H121.395V47.4026C121.395 47.5681 121.428 47.7321 121.491 47.885C121.554 48.038 121.647 48.177 121.764 48.2941C121.881 48.4111 122.02 48.504 122.173 48.5673C122.326 48.6307 122.49 48.6633 122.656 48.6633H128.504L128.504 57.1145Z" fill="#2481D7"/>
<path d="M191.983 113.263H140.059C139.838 113.263 139.618 113.306 139.414 113.391C139.209 113.476 139.023 113.6 138.867 113.757C138.71 113.914 138.586 114.1 138.502 114.305C138.417 114.51 138.374 114.73 138.375 114.951V133.911C138.374 134.133 138.417 134.353 138.501 134.558C138.586 134.763 138.71 134.949 138.866 135.106C139.023 135.263 139.208 135.387 139.413 135.472C139.618 135.557 139.837 135.601 140.059 135.6H191.983C192.204 135.601 192.424 135.557 192.629 135.472C192.833 135.387 193.019 135.263 193.176 135.106C193.332 134.949 193.456 134.762 193.54 134.558C193.624 134.353 193.667 134.133 193.666 133.911V114.951C193.667 114.73 193.624 114.51 193.54 114.305C193.455 114.1 193.331 113.914 193.175 113.757C193.019 113.601 192.833 113.476 192.628 113.391C192.424 113.306 192.204 113.263 191.983 113.263Z" fill="white"/>
<path d="M191.983 121.517H140.059C139.838 121.517 139.618 121.56 139.413 121.645C139.209 121.73 139.023 121.855 138.866 122.011C138.71 122.168 138.586 122.355 138.502 122.56C138.417 122.765 138.374 122.984 138.375 123.206V133.911C138.374 134.133 138.417 134.353 138.501 134.558C138.586 134.763 138.71 134.949 138.866 135.106C139.023 135.263 139.208 135.387 139.413 135.472C139.618 135.557 139.837 135.601 140.059 135.6H191.983C192.204 135.601 192.424 135.557 192.629 135.472C192.833 135.387 193.019 135.263 193.176 135.106C193.332 134.949 193.456 134.762 193.54 134.557C193.624 134.352 193.667 134.133 193.666 133.911V123.206C193.667 122.984 193.624 122.765 193.54 122.56C193.455 122.355 193.332 122.168 193.175 122.012C193.019 121.855 192.833 121.73 192.628 121.645C192.424 121.56 192.204 121.517 191.983 121.517Z" fill="#DEF4FC"/>
<path d="M191.657 143.018H191.059C190.227 143.018 189.428 142.687 188.839 142.098C188.25 141.509 187.919 140.71 187.918 139.877V135.601H144.124V139.877C144.123 140.711 143.792 141.51 143.202 142.099C142.613 142.688 141.813 143.018 140.98 143.018H140.383C132.177 143.018 131.806 149.673 131.806 157.881V208.735H200.225V167.15C200.228 167.085 200.236 167.023 200.236 166.952V157.881C200.236 149.673 199.865 143.018 191.657 143.018Z" fill="#5BA1E1"/>
<path d="M188.261 137.031H144.123V144.568H188.261V137.031Z" fill="#288DE8"/>
<path d="M182.685 143.018H182.297C181.171 143.018 180.255 141.613 180.255 139.877V135.601H151.787V139.877C151.787 141.613 150.871 143.018 149.743 143.018H149.356C144.021 143.018 143.781 149.673 143.781 157.881V208.735H188.255V167.15C188.257 167.085 188.262 167.023 188.262 166.952V157.881C188.262 149.673 188.021 143.018 182.685 143.018Z" fill="#288DE8"/>
<path d="M183.164 156.387H131.807V195.294H183.164V156.387Z" fill="white"/>
<path d="M143.784 156.387C143.781 156.878 143.78 157.376 143.781 157.881V195.294H183.164V156.387H143.784Z" fill="#DEF4FC"/>
<path d="M191.983 112.002H140.059C139.278 112.003 138.529 112.315 137.977 112.868C137.425 113.421 137.115 114.17 137.115 114.951V133.911C137.115 134.693 137.425 135.442 137.977 135.995C138.529 136.548 139.278 136.859 140.059 136.861H191.983C192.764 136.859 193.513 136.548 194.065 135.995C194.617 135.442 194.927 134.693 194.927 133.911V114.951C194.927 114.17 194.617 113.421 194.065 112.868C193.513 112.315 192.764 112.004 191.983 112.002ZM192.406 133.911C192.407 133.967 192.397 134.023 192.376 134.075C192.355 134.127 192.324 134.174 192.284 134.214C192.245 134.254 192.198 134.286 192.146 134.307C192.095 134.329 192.039 134.34 191.983 134.34H140.059C140.003 134.34 139.948 134.329 139.896 134.308C139.844 134.286 139.797 134.254 139.758 134.214C139.718 134.175 139.687 134.127 139.666 134.075C139.645 134.023 139.635 133.967 139.636 133.911V114.951C139.635 114.895 139.645 114.84 139.666 114.788C139.687 114.735 139.718 114.688 139.758 114.648C139.797 114.608 139.844 114.577 139.896 114.555C139.948 114.534 140.003 114.523 140.059 114.523H191.983C192.039 114.523 192.095 114.534 192.146 114.555C192.198 114.577 192.245 114.609 192.284 114.648C192.324 114.688 192.355 114.736 192.376 114.788C192.397 114.84 192.407 114.895 192.406 114.951V133.911Z" fill="#2481D7"/>
<path d="M191.657 141.757H191.059C190.561 141.757 190.083 141.559 189.73 141.206C189.378 140.854 189.18 140.376 189.179 139.878V135.601C189.179 135.435 189.147 135.271 189.083 135.118C189.02 134.965 188.927 134.826 188.81 134.709C188.693 134.592 188.554 134.499 188.401 134.436C188.248 134.372 188.084 134.34 187.918 134.34H144.123C143.958 134.34 143.794 134.372 143.641 134.436C143.488 134.499 143.349 134.592 143.232 134.709C143.115 134.826 143.022 134.965 142.959 135.118C142.895 135.271 142.863 135.435 142.863 135.601V139.878C142.862 140.376 142.663 140.854 142.31 141.207C141.957 141.559 141.479 141.757 140.98 141.757H140.382C130.546 141.757 130.546 150.698 130.546 157.881V208.735C130.546 208.9 130.578 209.064 130.642 209.217C130.705 209.37 130.798 209.509 130.915 209.626C131.032 209.743 131.171 209.836 131.324 209.899C131.477 209.963 131.641 209.995 131.806 209.995H200.225C200.39 209.995 200.554 209.963 200.707 209.9C200.86 209.836 200.999 209.743 201.116 209.626C201.233 209.509 201.326 209.37 201.39 209.217C201.453 209.064 201.486 208.9 201.486 208.735L201.487 167.175C201.492 167.104 201.496 167.031 201.496 166.952V157.881C201.496 150.698 201.496 141.757 191.657 141.757ZM198.975 166.947L198.966 167.087C198.965 167.108 198.964 167.13 198.964 167.151V207.474H133.067V157.881C133.067 148.289 134.084 144.279 140.382 144.279H140.98C142.147 144.278 143.267 143.814 144.092 142.989C144.918 142.164 145.383 141.045 145.384 139.878V136.861H186.658V139.878C186.659 141.045 187.123 142.163 187.949 142.988C188.774 143.813 189.893 144.278 191.059 144.279H191.657C197.958 144.279 198.975 148.289 198.975 157.881V166.947Z" fill="#2481D7"/>
<path d="M183.164 155.126H131.806C131.641 155.126 131.477 155.159 131.324 155.222C131.171 155.286 131.032 155.379 130.915 155.496C130.798 155.613 130.705 155.752 130.642 155.905C130.578 156.058 130.546 156.222 130.546 156.387V195.294C130.546 195.46 130.578 195.624 130.642 195.776C130.705 195.929 130.798 196.068 130.915 196.186C131.032 196.303 131.171 196.395 131.324 196.459C131.477 196.522 131.641 196.555 131.806 196.555H183.164C183.329 196.555 183.493 196.522 183.646 196.459C183.799 196.395 183.938 196.303 184.055 196.185C184.172 196.068 184.265 195.929 184.328 195.776C184.392 195.624 184.424 195.46 184.424 195.294V156.387C184.424 156.222 184.392 156.058 184.328 155.905C184.265 155.752 184.172 155.613 184.055 155.496C183.938 155.379 183.799 155.286 183.646 155.222C183.493 155.159 183.329 155.126 183.164 155.126ZM181.903 194.033H133.067V157.648H181.903V194.033Z" fill="#2481D7"/>
<path d="M182.884 164.066H131.807V165.747H182.884V164.066Z" fill="#2481D7"/>
<path d="M182.884 171.327H131.807V173.008H182.884V171.327Z" fill="#2481D7"/>
<path d="M182.884 178.587H131.807V180.268H182.884V178.587Z" fill="#2481D7"/>
<path d="M182.884 185.848H131.807V187.529H182.884V185.848Z" fill="#2481D7"/>
<path d="M78.9863 183.947H60.9729V185.628H78.9863V183.947Z" fill="#C8DFF5"/>
<path d="M74.4981 189.2H60.9729V190.881H74.4981V189.2Z" fill="#C8DFF5"/>
<path d="M78.9863 194.453H60.9729V196.134H78.9863V194.453Z" fill="#C8DFF5"/>
<path d="M74.4981 199.707H60.9729V201.387H74.4981V199.707Z" fill="#C8DFF5"/>
<path d="M78.9863 204.959H60.9729V206.64H78.9863V204.959Z" fill="#C8DFF5"/>
<path d="M19.7432 45.0093C19.6328 45.0093 19.5236 45.031 19.4216 45.0733C19.3196 45.1155 19.227 45.1774 19.149 45.2555C19.0709 45.3335 19.009 45.4262 18.9668 45.5281C18.9246 45.6301 18.9028 45.7394 18.9029 45.8497V51.4933C18.9029 51.7162 18.9914 51.9299 19.149 52.0875C19.3066 52.2451 19.5203 52.3337 19.7432 52.3337C19.9661 52.3337 20.1798 52.2451 20.3374 52.0875C20.495 51.9299 20.5836 51.7162 20.5836 51.4933V45.8497C20.5836 45.7394 20.5619 45.6301 20.5196 45.5281C20.4774 45.4262 20.4155 45.3335 20.3375 45.2555C20.2594 45.1774 20.1668 45.1155 20.0648 45.0733C19.9629 45.031 19.8536 45.0093 19.7432 45.0093ZM19.7519 54.9823H19.7457C19.5238 54.9823 19.311 55.0701 19.1536 55.2264C18.9961 55.3827 18.9069 55.595 18.9053 55.8168L18.9029 56.1599C18.902 56.2703 18.9229 56.3797 18.9644 56.4819C19.0059 56.5842 19.0671 56.6773 19.1446 56.7559C19.222 56.8345 19.3142 56.8971 19.4159 56.94C19.5175 56.983 19.6266 57.0055 19.737 57.0063H19.7432C19.9651 57.0063 20.1779 56.9185 20.3353 56.7622C20.4928 56.6059 20.582 56.3936 20.5836 56.1718L20.5861 55.8287C20.5869 55.7184 20.566 55.6089 20.5245 55.5067C20.483 55.4044 20.4218 55.3113 20.3443 55.2327C20.2669 55.1541 20.1747 55.0915 20.073 55.0486C19.9714 55.0056 19.8623 54.9831 19.7519 54.9823Z" fill="#C8DFF5"/>
<path d="M23.1098 48.0312L19.7422 44.6611L16.378 48.0313C16.2999 48.1094 16.238 48.2021 16.1957 48.3041C16.1535 48.4061 16.1318 48.5154 16.1318 48.6258C16.1319 48.7362 16.1537 48.8455 16.196 48.9475C16.2383 49.0494 16.3002 49.1421 16.3784 49.2201C16.4565 49.2981 16.5492 49.36 16.6512 49.4021C16.7532 49.4443 16.8626 49.4659 16.973 49.4658C17.0834 49.4657 17.1927 49.4439 17.2946 49.4015C17.3966 49.3591 17.4892 49.2971 17.5671 49.2189L19.7431 47.0397L21.9206 49.2192C22.0782 49.3768 22.2919 49.4655 22.5148 49.4656C22.7377 49.4657 22.9515 49.3773 23.1092 49.2197C23.2669 49.0622 23.3556 48.8485 23.3557 48.6255C23.3558 48.4026 23.2674 48.1888 23.1098 48.0311V48.0312ZM19.7434 27.9902C19.6331 27.9902 19.5238 28.012 19.4218 28.0542C19.3198 28.0965 19.2272 28.1584 19.1492 28.2364C19.0711 28.3145 19.0092 28.4071 18.967 28.5091C18.9248 28.6111 18.9031 28.7203 18.9031 28.8307V34.4742C18.9031 34.6971 18.9916 34.9109 19.1492 35.0685C19.3068 35.2261 19.5205 35.3146 19.7434 35.3146C19.9663 35.3146 20.18 35.2261 20.3376 35.0685C20.4952 34.9109 20.5838 34.6971 20.5838 34.4742V28.8307C20.5838 28.7203 20.5621 28.6111 20.5198 28.5091C20.4776 28.4071 20.4157 28.3145 20.3377 28.2364C20.2596 28.1584 20.167 28.0965 20.065 28.0542C19.9631 28.012 19.8538 27.9902 19.7434 27.9902ZM19.7521 37.9633H19.7459C19.524 37.9633 19.3112 38.051 19.1538 38.2074C18.9963 38.3637 18.9071 38.5759 18.9055 38.7978L18.9031 39.1409C18.9022 39.2512 18.9232 39.3607 18.9646 39.4629C19.0061 39.5652 19.0673 39.6583 19.1448 39.7369C19.2222 39.8155 19.3144 39.8781 19.4161 39.921C19.5177 39.964 19.6268 39.9865 19.7372 39.9873H19.7434C19.9653 39.9873 20.1781 39.8995 20.3356 39.7432C20.493 39.5869 20.5822 39.3746 20.5838 39.1528L20.5863 38.8097C20.5871 38.6993 20.5662 38.5899 20.5247 38.4876C20.4832 38.3854 20.422 38.2923 20.3445 38.2137C20.2671 38.1351 20.1749 38.0725 20.0732 38.0295C19.9716 37.9866 19.8625 37.9641 19.7521 37.9633Z" fill="#C8DFF5"/>
<path d="M23.1097 31.0116L19.742 27.6416L16.3778 31.0118C16.2998 31.0899 16.238 31.1826 16.1958 31.2845C16.1537 31.3865 16.132 31.4958 16.1321 31.6062C16.1322 31.7165 16.154 31.8258 16.1963 31.9277C16.2386 32.0296 16.3005 32.1222 16.3786 32.2002C16.4567 32.2782 16.5494 32.34 16.6513 32.3822C16.7533 32.4244 16.8626 32.446 16.973 32.4459C17.0833 32.4459 17.1926 32.4241 17.2945 32.3818C17.3964 32.3395 17.489 32.2775 17.567 32.1994L19.743 30.0201L21.9205 32.1997C21.9985 32.2778 22.0911 32.3397 22.1931 32.382C22.295 32.4243 22.4043 32.4461 22.5147 32.4461C22.6251 32.4462 22.7344 32.4245 22.8364 32.3823C22.9384 32.3401 23.031 32.2782 23.1091 32.2002C23.1872 32.1222 23.2492 32.0296 23.2914 31.9277C23.3337 31.8257 23.3555 31.7164 23.3556 31.606C23.3556 31.4957 23.3339 31.3864 23.2918 31.2844C23.2496 31.1824 23.1877 31.0897 23.1097 31.0116ZM19.7433 10.9707C19.6329 10.9707 19.5236 10.9925 19.4217 11.0347C19.3197 11.0769 19.2271 11.1388 19.149 11.2169C19.071 11.2949 19.0091 11.3876 18.9669 11.4896C18.9247 11.5915 18.9029 11.7008 18.9029 11.8112V17.4547C18.9029 17.6776 18.9915 17.8913 19.1491 18.0489C19.3067 18.2065 19.5204 18.2951 19.7433 18.2951C19.9662 18.2951 20.1799 18.2065 20.3375 18.0489C20.4951 17.8913 20.5836 17.6776 20.5836 17.4547V11.8112C20.5836 11.7008 20.5619 11.5915 20.5197 11.4896C20.4775 11.3876 20.4156 11.2949 20.3375 11.2169C20.2595 11.1388 20.1669 11.0769 20.0649 11.0347C19.9629 10.9925 19.8537 10.9707 19.7433 10.9707ZM19.752 20.9437H19.7458C19.5239 20.9438 19.311 21.0315 19.1536 21.1878C18.9962 21.3442 18.907 21.5564 18.9054 21.7783L18.9029 22.1214C18.9021 22.2317 18.923 22.3412 18.9645 22.4434C19.006 22.5457 19.0672 22.6388 19.1447 22.7174C19.2221 22.796 19.3143 22.8586 19.4159 22.9015C19.5176 22.9445 19.6267 22.967 19.7371 22.9678H19.7433C19.9651 22.9678 20.178 22.88 20.3354 22.7237C20.4928 22.5674 20.5821 22.3551 20.5836 22.1333L20.5861 21.7902C20.587 21.6798 20.566 21.5704 20.5246 21.4681C20.4831 21.3659 20.4219 21.2728 20.3444 21.1942C20.267 21.1155 20.1748 21.053 20.0731 21.01C19.9715 20.967 19.8623 20.9445 19.752 20.9437Z" fill="#C8DFF5"/>
<path d="M23.1097 13.9931L19.7421 10.623L16.3778 13.9933C16.2999 14.0713 16.238 14.164 16.1958 14.266C16.1537 14.368 16.132 14.4773 16.1321 14.5876C16.1322 14.698 16.154 14.8072 16.1963 14.9092C16.2386 15.0111 16.3005 15.1037 16.3786 15.1817C16.4567 15.2597 16.5494 15.3215 16.6513 15.3637C16.7533 15.4058 16.8626 15.4275 16.973 15.4274C17.0833 15.4274 17.1926 15.4056 17.2945 15.3633C17.3964 15.321 17.489 15.259 17.567 15.1809L19.743 13.0016L21.9205 15.1811C22.0781 15.3388 22.2918 15.4274 22.5147 15.4276C22.7376 15.4277 22.9514 15.3392 23.1091 15.1817C23.2668 15.0241 23.3555 14.8104 23.3556 14.5875C23.3557 14.3646 23.2672 14.1508 23.1097 13.9931V13.9931Z" fill="#C8DFF5"/>
</g>
</svg>
