<svg width="45" height="45" viewBox="0 0 45 45" fill="none" xmlns="http://www.w3.org/2000/svg">
<path d="M17.5166 12.6146L18.5926 12.2706C19.6016 11.9486 20.6796 12.4696 21.1116 13.4876L21.9716 15.5156C22.3456 16.3986 22.1376 17.4376 21.4576 18.0836L19.5626 19.8816C19.6796 20.9576 20.0416 22.0166 20.6476 23.0586C21.2231 24.0667 21.995 24.9491 22.9176 25.6536L25.1936 24.8936C26.0556 24.6066 26.9956 24.9376 27.5236 25.7146L28.7566 27.5246C29.3716 28.4286 29.2606 29.6746 28.4976 30.4406L27.6806 31.2616C26.8666 32.0786 25.7036 32.3756 24.6286 32.0396C22.0886 31.2476 19.7556 28.8966 17.6256 24.9866C15.4926 21.0706 14.7396 17.7466 15.3676 15.0186C15.6316 13.8706 16.4486 12.9556 17.5166 12.6146Z" fill="url(#paint0_linear_222_1219)"/>
<rect x="0.65332" y="0.675781" width="43" height="43" rx="7.5" stroke="url(#paint1_linear_222_1219)"/>
<defs>
<linearGradient id="paint0_linear_222_1219" x1="15.1534" y1="22.1757" x2="29.1532" y2="22.1757" gradientUnits="userSpaceOnUse">
<stop stop-color="#2EA8FA"/>
<stop offset="1" stop-color="#076EB3"/>
</linearGradient>
<linearGradient id="paint1_linear_222_1219" x1="0.15332" y1="22.1758" x2="44.1533" y2="22.1758" gradientUnits="userSpaceOnUse">
<stop stop-color="#2EA8FA"/>
<stop offset="1" stop-color="#076EB3"/>
</linearGradient>
</defs>
</svg>
