<svg width="19" height="21" viewBox="0 0 19 21" fill="none" xmlns="http://www.w3.org/2000/svg">
<path d="M11 0.399902V5.7999C11 6.27729 11.1896 6.73513 11.5272 7.0727C11.8647 7.41026 12.3226 7.5999 12.8 7.5999H18.2V17.7999C18.2 18.2773 18.0103 18.7351 17.6727 19.0727C17.3352 19.4103 16.8773 19.5999 16.4 19.5999H10.6916C11.5878 18.5146 12.1136 17.1711 12.1922 15.7658C12.2707 14.3604 11.8979 12.9668 11.1283 11.7883C10.3586 10.6099 9.23228 9.70832 7.91387 9.21538C6.59546 8.72243 5.15399 8.66389 3.79995 9.0483V2.1999C3.79995 1.72251 3.98959 1.26468 4.32716 0.92711C4.66472 0.589545 5.12256 0.399902 5.59995 0.399902H11ZM12.2 0.699902V5.7999C12.2 5.95903 12.2632 6.11164 12.3757 6.22417C12.4882 6.33669 12.6408 6.3999 12.8 6.3999H17.9L12.2 0.699902ZM11 15.3999C11 16.8321 10.431 18.2056 9.41833 19.2183C8.40563 20.231 7.03212 20.7999 5.59995 20.7999C4.16778 20.7999 2.79427 20.231 1.78157 19.2183C0.768878 18.2056 0.199951 16.8321 0.199951 15.3999C0.199951 13.9677 0.768878 12.5942 1.78157 11.5815C2.79427 10.5688 4.16778 9.9999 5.59995 9.9999C7.03212 9.9999 8.40563 10.5688 9.41833 11.5815C10.431 12.5942 11 13.9677 11 15.3999ZM6.19995 12.9999C6.19995 12.8408 6.13674 12.6882 6.02422 12.5756C5.91169 12.4631 5.75908 12.3999 5.59995 12.3999C5.44082 12.3999 5.28821 12.4631 5.17569 12.5756C5.06317 12.6882 4.99995 12.8408 4.99995 12.9999V14.7999H3.19995C3.04082 14.7999 2.88821 14.8631 2.77569 14.9756C2.66317 15.0882 2.59995 15.2408 2.59995 15.3999C2.59995 15.559 2.66317 15.7116 2.77569 15.8242C2.88821 15.9367 3.04082 15.9999 3.19995 15.9999H4.99995V17.7999C4.99995 17.959 5.06317 18.1116 5.17569 18.2242C5.28821 18.3367 5.44082 18.3999 5.59995 18.3999C5.75908 18.3999 5.91169 18.3367 6.02422 18.2242C6.13674 18.1116 6.19995 17.959 6.19995 17.7999V15.9999H7.99995C8.15908 15.9999 8.31169 15.9367 8.42422 15.8242C8.53674 15.7116 8.59995 15.559 8.59995 15.3999C8.59995 15.2408 8.53674 15.0882 8.42422 14.9756C8.31169 14.8631 8.15908 14.7999 7.99995 14.7999H6.19995V12.9999Z" fill="url(#paint0_linear_697_596)"/>
<defs>
<linearGradient id="paint0_linear_697_596" x1="0.199951" y1="10.5999" x2="18.2" y2="10.5999" gradientUnits="userSpaceOnUse">
<stop stop-color="#2EA8FA"/>
<stop offset="1" stop-color="#076EB3"/>
</linearGradient>
</defs>
</svg>
