<svg width="21" height="22" viewBox="0 0 21 22" fill="none" xmlns="http://www.w3.org/2000/svg">
<path fill-rule="evenodd" clip-rule="evenodd" d="M18.8191 6.62361L18.1967 5.54352C17.6701 4.6296 16.5032 4.31432 15.588 4.83872C15.1524 5.09534 14.6325 5.16815 14.1432 5.04109C13.6538 4.91402 13.235 4.59752 12.9793 4.16137C12.8148 3.88415 12.7263 3.56839 12.723 3.24604C12.7378 2.72922 12.5429 2.2284 12.1825 1.85767C11.8221 1.48694 11.327 1.27786 10.81 1.27808H9.55595C9.04942 1.27808 8.56376 1.47991 8.20645 1.83895C7.84914 2.19798 7.64963 2.68459 7.65206 3.19112C7.63705 4.23693 6.78493 5.07681 5.73902 5.0767C5.41666 5.07336 5.10091 4.98494 4.82369 4.82041C3.90851 4.29601 2.74156 4.61129 2.21499 5.52522L1.5468 6.62361C1.02086 7.53639 1.33185 8.70261 2.24245 9.23231C2.83435 9.57404 3.19898 10.2056 3.19898 10.8891C3.19898 11.5725 2.83435 12.2041 2.24245 12.5458C1.33301 13.0719 1.02168 14.2353 1.5468 15.1454L2.17838 16.2346C2.4251 16.6798 2.83905 17.0083 3.32864 17.1474C3.81823 17.2866 4.34309 17.2249 4.78707 16.976C5.22353 16.7213 5.74364 16.6516 6.23179 16.7822C6.71994 16.9128 7.13569 17.233 7.38661 17.6717C7.55115 17.9489 7.63956 18.2646 7.64291 18.587C7.64291 19.6435 8.49941 20.5 9.55595 20.5H10.81C11.8629 20.5 12.718 19.6491 12.723 18.5962C12.7205 18.088 12.9213 17.6 13.2806 17.2407C13.6399 16.8814 14.1279 16.6807 14.636 16.6831C14.9576 16.6917 15.2721 16.7798 15.5514 16.9394C16.4642 17.4653 17.6304 17.1544 18.1601 16.2438L18.8191 15.1454C19.0742 14.7075 19.1442 14.186 19.0137 13.6964C18.8831 13.2067 18.5627 12.7894 18.1235 12.5367C17.6842 12.284 17.3638 11.8666 17.2333 11.3769C17.1027 10.8873 17.1727 10.3658 17.4278 9.92796C17.5937 9.63834 17.8338 9.3982 18.1235 9.23231C19.0286 8.70289 19.3389 7.54349 18.8191 6.63277V6.62361Z" stroke="#200E32" stroke-width="2" stroke-linecap="round" stroke-linejoin="round"/>
<path d="M10.1875 13.5249C11.6433 13.5249 12.8235 12.3448 12.8235 10.8889C12.8235 9.43311 11.6433 8.25293 10.1875 8.25293C8.73169 8.25293 7.55151 9.43311 7.55151 10.8889C7.55151 12.3448 8.73169 13.5249 10.1875 13.5249Z" stroke="#200E32" stroke-width="2" stroke-linecap="round" stroke-linejoin="round"/>
</svg>
