<svg width="19" height="20" viewBox="0 0 19 20" fill="none" xmlns="http://www.w3.org/2000/svg">
<path fill-rule="evenodd" clip-rule="evenodd" d="M17.8191 5.37728L17.1967 4.29718C16.6701 3.38326 15.5032 3.06798 14.588 3.59238C14.1524 3.84901 13.6325 3.92181 13.1432 3.79475C12.6538 3.66768 12.235 3.35118 11.9793 2.91503C11.8148 2.63781 11.7263 2.32206 11.723 1.9997C11.7378 1.48288 11.5429 0.982064 11.1825 0.611332C10.8221 0.240599 10.327 0.0315255 9.80995 0.0317384H8.55595C8.04942 0.0317384 7.56376 0.233577 7.20645 0.592607C6.84914 0.951638 6.64963 1.43826 6.65206 1.94478C6.63705 2.99059 5.78493 3.83047 4.73902 3.83037C4.41666 3.82702 4.10091 3.73861 3.82369 3.57407C2.90851 3.04968 1.74156 3.36496 1.21499 4.27888L0.546798 5.37728C0.0208613 6.29006 0.331851 7.45627 1.24245 7.98597C1.83435 8.3277 2.19898 8.95925 2.19898 9.64272C2.19898 10.3262 1.83435 10.9577 1.24245 11.2995C0.333008 11.8256 0.0216784 12.989 0.546798 13.899L1.17838 14.9883C1.4251 15.4334 1.83905 15.762 2.32864 15.9011C2.81823 16.0402 3.34309 15.9786 3.78707 15.7297C4.22353 15.475 4.74364 15.4052 5.23179 15.5359C5.71994 15.6665 6.13569 15.9867 6.38661 16.4253C6.55115 16.7026 6.63956 17.0183 6.64291 17.3407C6.64291 18.3972 7.49941 19.2537 8.55595 19.2537H9.80995C10.8629 19.2537 11.718 18.4028 11.723 17.3498C11.7205 16.8417 11.9213 16.3537 12.2806 15.9944C12.6399 15.6351 13.1279 15.4343 13.636 15.4368C13.9576 15.4454 14.2721 15.5334 14.5514 15.6931C15.4642 16.219 16.6304 15.908 17.1601 14.9974L17.8191 13.899C18.0742 13.4612 18.1442 12.9397 18.0137 12.45C17.8831 11.9604 17.5627 11.543 17.1235 11.2903C16.6842 11.0376 16.3638 10.6202 16.2333 10.1306C16.1027 9.64097 16.1727 9.11948 16.4278 8.68162C16.5937 8.392 16.8338 8.15186 17.1235 7.98597C18.0286 7.45656 18.3389 6.29716 17.8191 5.38643V5.37728Z" fill="url(#paint0_linear_950_193)"/>
<path d="M10.8233 9.64284C10.8233 10.5464 10.0908 11.2788 9.18727 11.2788C8.28373 11.2788 7.55127 10.5464 7.55127 9.64284C7.55127 8.7393 8.28373 8.00684 9.18727 8.00684C10.0908 8.00684 10.8233 8.7393 10.8233 9.64284Z" fill="white" stroke="white" stroke-width="2" stroke-linecap="round" stroke-linejoin="round"/>
<defs>
<linearGradient id="paint0_linear_950_193" x1="0.291016" y1="9.64273" x2="18.0779" y2="9.64273" gradientUnits="userSpaceOnUse">
<stop stop-color="#2EA8FA"/>
<stop offset="1" stop-color="#076EB3"/>
</linearGradient>
</defs>
</svg>
