<svg width="24" height="24" viewBox="0 0 24 24" fill="none" xmlns="http://www.w3.org/2000/svg">
<path d="M24 22.4575L20.088 18.5455L21.8182 16.8153L20.2756 15.2727L18.5455 17.0029L16.5469 15.0044C17.841 13.3742 18.5454 11.3541 18.5455 9.27273C18.5455 4.15964 14.3858 0 9.27273 0C4.15964 0 0 4.15964 0 9.27273C0 14.3858 4.15964 18.5455 9.27273 18.5455C11.3541 18.5454 13.3742 17.841 15.0044 16.5469L17.0029 18.5455L15.2727 20.2756L16.8153 21.8182L18.5455 20.088L22.4575 24L24 22.4575ZM9.27273 16.3636C5.36291 16.3636 2.18182 13.1825 2.18182 9.27273C2.18182 5.36291 5.36291 2.18182 9.27273 2.18182C13.1825 2.18182 16.3636 5.36291 16.3636 9.27273C16.3636 13.1825 13.1825 16.3636 9.27273 16.3636Z" fill="#2D98D4"/>
<path d="M24 22.4575L20.088 18.5455L21.8182 16.8153L20.2756 15.2727L18.5455 17.0029L16.5469 15.0044C17.841 13.3742 18.5454 11.3541 18.5455 9.27273C18.5455 4.15964 14.3858 0 9.27273 0C4.15964 0 0 4.15964 0 9.27273C0 14.3858 4.15964 18.5455 9.27273 18.5455C11.3541 18.5454 13.3742 17.841 15.0044 16.5469L17.0029 18.5455L15.2727 20.2756L16.8153 21.8182L18.5455 20.088L22.4575 24L24 22.4575ZM9.27273 16.3636C5.36291 16.3636 2.18182 13.1825 2.18182 9.27273C2.18182 5.36291 5.36291 2.18182 9.27273 2.18182C13.1825 2.18182 16.3636 5.36291 16.3636 9.27273C16.3636 13.1825 13.1825 16.3636 9.27273 16.3636Z" fill="url(#paint0_linear_331_1331)"/>
<defs>
<linearGradient id="paint0_linear_331_1331" x1="0.869454" y1="5.35418" x2="26.4196" y2="17.268" gradientUnits="userSpaceOnUse">
<stop stop-color="white" stop-opacity="0.2"/>
<stop offset="1" stop-color="white" stop-opacity="0"/>
</linearGradient>
</defs>
</svg>
