<svg width="15" height="20" viewBox="0 0 15 20" fill="none" xmlns="http://www.w3.org/2000/svg">
<path d="M2.0005 9.0005H13.5475C14.4095 9.0005 14.8675 7.9805 14.2945 7.3355L8.5215 0.840499C8.42786 0.734803 8.31286 0.650183 8.18409 0.59223C8.05532 0.534277 7.91571 0.504311 7.7745 0.504311C7.63329 0.504311 7.49369 0.534277 7.36492 0.59223C7.23615 0.650183 7.12115 0.734803 7.0275 0.840499L1.2525 7.3355C0.679504 7.9805 1.1375 9.0005 2.0005 9.0005ZM7.0265 19.1595C7.12015 19.2652 7.23515 19.3498 7.36392 19.4078C7.49269 19.4657 7.63229 19.4957 7.7735 19.4957C7.91471 19.4957 8.05432 19.4657 8.18309 19.4078C8.31186 19.3498 8.42686 19.2652 8.5205 19.1595L14.2935 12.6645C14.8675 12.0205 14.4095 11.0005 13.5465 11.0005H2.0005C1.1385 11.0005 0.680504 12.0205 1.2535 12.6655L7.0265 19.1595Z" fill="black"/>
</svg>
