<svg width="23" height="16" viewBox="0 0 23 16" fill="none" xmlns="http://www.w3.org/2000/svg">
<path d="M17.1533 6.99978C17.1443 6.99978 17.1363 7.00178 17.1283 7.00278C17.0067 5.3225 16.2371 3.75517 14.9819 2.63154C13.7267 1.50791 12.0841 0.915868 10.4006 0.980351C8.71718 1.04483 7.12463 1.7608 5.95905 2.97716C4.79346 4.19352 4.14601 5.81512 4.15332 7.49978C4.15529 8.01167 4.21772 8.52154 4.33932 9.01878C4.27632 9.01578 4.21732 8.99978 4.15332 8.99978C3.09245 8.99978 2.07504 9.42121 1.32489 10.1714C0.574748 10.9215 0.15332 11.9389 0.15332 12.9998C0.15332 14.2018 0.69432 15.2668 1.53332 15.9998H20.1263C21.3493 15.0888 22.1533 13.6428 22.1533 11.9998C22.1533 11.3432 22.024 10.693 21.7727 10.0864C21.5214 9.47974 21.1531 8.92854 20.6889 8.46425C20.2246 7.99995 19.6734 7.63166 19.0667 7.38038C18.4601 7.12911 17.8099 6.99978 17.1533 6.99978ZM12.1533 10.9998V13.9998H10.1533V10.9998H7.15332L11.1533 5.99978L15.1533 10.9998H12.1533Z" fill="url(#paint0_linear_558_2172)"/>
<defs>
<linearGradient id="paint0_linear_558_2172" x1="0.15332" y1="8.48769" x2="22.1533" y2="8.48769" gradientUnits="userSpaceOnUse">
<stop stop-color="#2EA8FA"/>
<stop offset="1" stop-color="#076EB3"/>
</linearGradient>
</defs>
</svg>
