<svg width="24" height="25" viewBox="0 0 24 25" fill="none" xmlns="http://www.w3.org/2000/svg">
<path d="M3.15996 22.5988C3.20702 22.6481 3.26367 22.6873 3.32644 22.714C3.38921 22.7407 3.45677 22.7542 3.52496 22.7538H20.5C20.5682 22.7542 20.6357 22.7407 20.6985 22.714C20.7613 22.6873 20.8179 22.6481 20.865 22.5988M3.15996 22.5988L3.51898 22.2606L3.5219 22.2578L3.52392 22.2559L3.52393 22.2559L3.52496 22.255L3.52639 22.2536L3.88789 21.9131C3.9349 21.963 3.97114 22.0221 3.99437 22.0866C4.01704 22.1495 4.02683 22.2164 4.02319 22.2832C4.03375 22.1059 4.05019 21.9293 4.07241 21.7538M3.15996 22.5988L3.51698 22.2584L3.51988 22.2557L3.52188 22.2538L3.5223 22.2534L3.52496 22.2508L3.88379 21.9088C3.83674 21.8594 3.78009 21.8202 3.71732 21.7936C3.65643 21.7677 3.59105 21.7542 3.52496 21.7538C3.52291 21.7538 3.52085 21.7538 3.51879 21.7538L3.52496 21.7538V21.7538H4.07241M3.15996 22.5988C3.11295 22.5489 3.07671 22.4898 3.05348 22.4253C3.03026 22.3608 3.02055 22.2922 3.02496 22.2238L8.17996 14.6138M4.07241 21.7538H19.9517M4.07241 21.7538C4.23006 20.5085 4.67891 19.3152 5.38564 18.2719C6.09403 17.2262 7.03849 16.3651 8.13972 15.7566M19.9517 21.7538C19.9743 21.9297 19.991 22.1068 20.0018 22.2845C19.998 22.2173 20.0077 22.15 20.0306 22.0866C20.0538 22.0221 20.09 21.963 20.137 21.9131L20.4992 22.2543L20.5 22.255L20.501 22.2559L20.501 22.256L20.503 22.2578L20.5059 22.2606L20.865 22.5988M19.9517 21.7538H20.5H20.5061V21.7538C20.5041 21.7538 20.502 21.7538 20.5 21.7538C20.4339 21.7542 20.3685 21.7677 20.3076 21.7936C20.2448 21.8202 20.1882 21.8594 20.1411 21.9088L20.5 22.2508L20.503 22.2538L20.5033 22.254L20.5051 22.2557L20.508 22.2585L20.865 22.5988M19.9517 21.7538C19.7919 20.5068 19.3401 19.3124 18.6299 18.2691C17.9174 17.2223 16.9681 16.3618 15.8621 15.7555M20.865 22.5988C20.912 22.5489 20.9482 22.4898 20.9714 22.4253C20.9947 22.3608 21.0044 22.2922 21 22.2238C20.9015 20.6065 20.3683 19.0458 19.4566 17.7064C18.5448 16.3669 17.2884 15.2985 15.82 14.6138M15.8621 15.7555C16.0341 15.6603 16.2028 15.5585 16.368 15.4502L15.82 14.6138M15.8621 15.7555C15.7101 15.6722 15.5551 15.5936 15.3974 15.5201L15.82 14.6138M15.8621 15.7555C14.683 16.4087 13.3543 16.7538 12 16.7538C10.6463 16.7538 9.31835 16.4091 8.13972 15.7566M15.82 14.6138C14.6848 15.3576 13.3571 15.7538 12 15.7538C10.6428 15.7538 9.31515 15.3576 8.17996 14.6138M8.17996 14.6138L8.60542 15.5187C8.44733 15.5931 8.29202 15.6724 8.13972 15.7566M8.17996 14.6138L7.6319 15.4502C7.79771 15.5589 7.96711 15.661 8.13972 15.7566" stroke="black" stroke-width="2" stroke-linejoin="round"/>
<path d="M17 8.75391C17 11.5153 14.7614 13.7539 12 13.7539C9.23858 13.7539 7 11.5153 7 8.75391C7 5.99248 9.23858 3.75391 12 3.75391C14.7614 3.75391 17 5.99248 17 8.75391Z" stroke="black" stroke-width="2" stroke-linejoin="round"/>
</svg>
