<svg width="25" height="24" viewBox="0 0 25 24" fill="none" xmlns="http://www.w3.org/2000/svg">
<path d="M16.1354 13.8599C15.0002 14.6037 13.6726 14.9999 12.3154 14.9999C10.9582 14.9999 9.63058 14.6037 8.49539 13.8599C7.03159 14.548 5.7803 15.618 4.87315 16.9572C3.96599 18.2963 3.43651 19.8552 3.34039 21.4699C3.33598 21.5383 3.34569 21.6069 3.36891 21.6714C3.39214 21.7359 3.42838 21.795 3.47539 21.8449C3.52245 21.8942 3.5791 21.9334 3.64187 21.9601C3.70464 21.9868 3.7722 22.0003 3.84039 21.9999H20.8154C20.8836 22.0003 20.9511 21.9868 21.0139 21.9601C21.0767 21.9334 21.1333 21.8942 21.1804 21.8449C21.2274 21.795 21.2636 21.7359 21.2869 21.6714C21.3101 21.6069 21.3198 21.5383 21.3154 21.4699C21.2169 19.8526 20.6837 18.2919 19.772 16.9525C18.8603 15.613 17.6039 14.5446 16.1354 13.8599Z" fill="url(#paint0_linear_950_221)"/>
<path d="M12.3154 14C15.6291 14 18.3154 11.3137 18.3154 8C18.3154 4.68629 15.6291 2 12.3154 2C9.00172 2 6.31543 4.68629 6.31543 8C6.31543 11.3137 9.00172 14 12.3154 14Z" fill="url(#paint1_linear_950_221)"/>
<defs>
<linearGradient id="paint0_linear_950_221" x1="3.33936" y1="17.9299" x2="21.3164" y2="17.9299" gradientUnits="userSpaceOnUse">
<stop stop-color="#2EA8FA"/>
<stop offset="1" stop-color="#076EB3"/>
</linearGradient>
<linearGradient id="paint1_linear_950_221" x1="6.31543" y1="8.00001" x2="18.3154" y2="8.00001" gradientUnits="userSpaceOnUse">
<stop stop-color="#2EA8FA"/>
<stop offset="1" stop-color="#076EB3"/>
</linearGradient>
</defs>
</svg>
