<svg width="24" height="24" viewBox="0 0 24 24" fill="none" xmlns="http://www.w3.org/2000/svg">
<path d="M3.15996 21.8454C3.20702 21.8947 3.26367 21.9339 3.32644 21.9606C3.38921 21.9872 3.45677 22.0008 3.52496 22.0004H20.5C20.5682 22.0008 20.6357 21.9872 20.6985 21.9606C20.7613 21.9339 20.8179 21.8947 20.865 21.8454M3.15996 21.8454L3.51898 21.5072L3.5219 21.5044L3.52392 21.5025L3.52393 21.5025L3.52496 21.5015L3.52639 21.5002L3.88789 21.1597C3.9349 21.2096 3.97114 21.2686 3.99437 21.3332C4.01704 21.3961 4.02683 21.463 4.02319 21.5298C4.03375 21.3525 4.05019 21.1759 4.07241 21.0004M3.15996 21.8454L3.51698 21.505L3.51988 21.5023L3.52188 21.5004L3.5223 21.5L3.52496 21.4974L3.88379 21.1554C3.83674 21.106 3.78009 21.0668 3.71732 21.0401C3.65643 21.0143 3.59105 21.0008 3.52496 21.0004C3.52291 21.0004 3.52085 21.0004 3.51879 21.0004L3.52496 21.0003V21.0004H4.07241M3.15996 21.8454C3.11295 21.7954 3.07671 21.7364 3.05348 21.6719C3.03026 21.6074 3.02055 21.5388 3.02496 21.4704L8.17996 13.8604M4.07241 21.0004H19.9517M4.07241 21.0004C4.23006 19.7551 4.67891 18.5618 5.38564 17.5185C6.09403 16.4727 7.03849 15.6117 8.13972 15.0032M19.9517 21.0004C19.9743 21.1763 19.991 21.3533 20.0018 21.5311C19.998 21.4639 20.0077 21.3965 20.0306 21.3332C20.0538 21.2687 20.09 21.2096 20.137 21.1597L20.4992 21.5008L20.5 21.5015L20.501 21.5025L20.501 21.5025L20.503 21.5044L20.5059 21.5072L20.865 21.8454M19.9517 21.0004H20.5H20.5061V21.0004C20.5041 21.0004 20.502 21.0004 20.5 21.0004C20.4339 21.0008 20.3685 21.0143 20.3076 21.0401C20.2448 21.0668 20.1882 21.106 20.1411 21.1554L20.5 21.4974L20.503 21.5004L20.5033 21.5006L20.5051 21.5023L20.508 21.505L20.865 21.8454M19.9517 21.0004C19.7919 19.7534 19.3401 18.559 18.6299 17.5156C17.9174 16.4689 16.9681 15.6084 15.8621 15.0021M20.865 21.8454C20.912 21.7954 20.9482 21.7364 20.9714 21.6719C20.9947 21.6074 21.0044 21.5388 21 21.4704C20.9015 19.8531 20.3683 18.2924 19.4566 16.9529C18.5448 15.6135 17.2884 14.5451 15.82 13.8604M15.8621 15.0021C16.0341 14.9068 16.2028 14.805 16.368 14.6968L15.82 13.8604M15.8621 15.0021C15.7101 14.9188 15.5551 14.8402 15.3974 14.7667L15.82 13.8604M15.8621 15.0021C14.683 15.6553 13.3543 16.0004 12 16.0004C10.6463 16.0004 9.31835 15.6557 8.13972 15.0032M15.82 13.8604C14.6848 14.6042 13.3571 15.0004 12 15.0004C10.6428 15.0004 9.31515 14.6042 8.17996 13.8604M8.17996 13.8604L8.60542 14.7653C8.44733 14.8397 8.29202 14.919 8.13972 15.0032M8.17996 13.8604L7.6319 14.6968C7.79771 14.8054 7.96711 14.9076 8.13972 15.0032" stroke="black" stroke-width="2" stroke-linejoin="round"/>
<path d="M17 8C17 10.7614 14.7614 13 12 13C9.23858 13 7 10.7614 7 8C7 5.23858 9.23858 3 12 3C14.7614 3 17 5.23858 17 8Z" stroke="black" stroke-width="2" stroke-linejoin="round"/>
</svg>
