<svg width="24" height="24" viewBox="0 0 24 24" fill="none" xmlns="http://www.w3.org/2000/svg">
<path d="M3.15996 21.8451C3.20702 21.8945 3.26367 21.9337 3.32644 21.9603C3.38921 21.987 3.45677 22.0005 3.52496 22.0001H20.5C20.5682 22.0005 20.6357 21.987 20.6985 21.9603C20.7613 21.9337 20.8179 21.8945 20.865 21.8451M3.15996 21.8451L3.51898 21.5069L3.5219 21.5042L3.52392 21.5023L3.52393 21.5023L3.52496 21.5013L3.52639 21.5L3.88789 21.1595C3.9349 21.2094 3.97114 21.2684 3.99437 21.3329C4.01704 21.3959 4.02683 21.4627 4.02319 21.5295C4.03375 21.3522 4.05019 21.1756 4.07241 21.0001M3.15996 21.8451L3.51698 21.5048L3.51988 21.502L3.52188 21.5001L3.5223 21.4997L3.52496 21.4972L3.88379 21.1551C3.83674 21.1058 3.78009 21.0666 3.71732 21.0399C3.65643 21.014 3.59105 21.0005 3.52496 21.0001C3.52291 21.0001 3.52085 21.0001 3.51879 21.0001L3.52496 21.0001V21.0001H4.07241M3.15996 21.8451C3.11295 21.7952 3.07671 21.7362 3.05348 21.6716C3.03026 21.6071 3.02055 21.5385 3.02496 21.4701L8.17996 13.8601M4.07241 21.0001H19.9517M4.07241 21.0001C4.23006 19.7549 4.67891 18.5615 5.38564 17.5182C6.09403 16.4725 7.03849 15.6114 8.13972 15.0029M19.9517 21.0001C19.9743 21.1761 19.991 21.3531 20.0018 21.5309C19.998 21.4636 20.0077 21.3963 20.0306 21.3329C20.0538 21.2684 20.09 21.2094 20.137 21.1594L20.4992 21.5006L20.5 21.5013L20.501 21.5023L20.501 21.5023L20.503 21.5042L20.5059 21.5069L20.865 21.8451M19.9517 21.0001H20.5H20.5061V21.0001C20.5041 21.0001 20.502 21.0001 20.5 21.0001C20.4339 21.0005 20.3685 21.014 20.3076 21.0399C20.2448 21.0666 20.1882 21.1058 20.1411 21.1551L20.5 21.4972L20.503 21.5001L20.5033 21.5003L20.5051 21.502L20.508 21.5048L20.865 21.8451M19.9517 21.0001C19.7919 19.7532 19.3401 18.5588 18.6299 17.5154C17.9174 16.4687 16.9681 15.6081 15.8621 15.0018M20.865 21.8451C20.912 21.7952 20.9482 21.7362 20.9714 21.6716C20.9947 21.6071 21.0044 21.5385 21 21.4701C20.9015 19.8528 20.3683 18.2921 19.4566 16.9527C18.5448 15.6133 17.2884 14.5448 15.82 13.8601M15.8621 15.0018C16.0341 14.9066 16.2028 14.8048 16.368 14.6965L15.82 13.8601M15.8621 15.0018C15.7101 14.9185 15.5551 14.84 15.3974 14.7664L15.82 13.8601M15.8621 15.0018C14.683 15.6551 13.3543 16.0001 12 16.0001C10.6463 16.0001 9.31835 15.6554 8.13972 15.0029M15.82 13.8601C14.6848 14.6039 13.3571 15.0001 12 15.0001C10.6428 15.0001 9.31515 14.6039 8.17996 13.8601M8.17996 13.8601L8.60542 14.7651C8.44733 14.8394 8.29202 14.9187 8.13972 15.0029M8.17996 13.8601L7.6319 14.6965C7.79771 14.8052 7.96711 14.9073 8.13972 15.0029" stroke="black" stroke-width="2" stroke-linejoin="round"/>
<path d="M17 8C17 10.7614 14.7614 13 12 13C9.23858 13 7 10.7614 7 8C7 5.23858 9.23858 3 12 3C14.7614 3 17 5.23858 17 8Z" stroke="black" stroke-width="2" stroke-linejoin="round"/>
</svg>
