<svg width="1920" height="628" viewBox="0 0 1920 628" fill="none" xmlns="http://www.w3.org/2000/svg">
<path fill-rule="evenodd" clip-rule="evenodd" d="M0 212.876L32 283.014C64 354.383 128 495.89 192 567.258C256 637.397 320 637.397 384 614.017C448 590.638 512 543.879 576 460.205C640 377.762 704 186.42 768 163.041C832 139.661 896 164.886 960 248.56C1024 331.003 1088 425.751 1152 390.067C1216 354.383 1237.5 222.104 1301.5 163.041C1365.5 103.977 1472 236.255 1536 307.624C1600 377.762 1664 472.51 1728 484.815C1792 495.89 1856 425.751 1888 390.067L1920 354.383V0H1888C1856 0 1792 0 1728 0C1664 0 1600 0 1536 0C1472 0 1408 0 1344 0C1280 0 1216 0 1152 0C1088 0 1024 0 960 0C896 0 832 0 768 0C704 0 640 0 576 0C512 0 448 0 384 0C320 0 256 0 192 0C128 0 64 0 32 0H0V212.876Z" fill="#70C6FF" fill-opacity="0.2"/>
</svg>
