<svg width="44" height="44" viewBox="0 0 44 44" fill="none" xmlns="http://www.w3.org/2000/svg">
<path d="M28 32C29.1046 32 30 31.1046 30 30C30 28.8954 29.1046 28 28 28C26.8954 28 26 28.8954 26 30C26 31.1046 26.8954 32 28 32Z" fill="black" fill-opacity="0.6"/>
<path d="M35.777 29.479C35.1591 27.9049 34.0929 26.5467 32.7105 25.5728C31.3281 24.5988 29.6902 24.052 28 24C26.3098 24.052 24.6719 24.5988 23.2895 25.5728C21.9071 26.5467 20.8409 27.9049 20.223 29.479L20 30L20.223 30.521C20.8409 32.0951 21.9071 33.4533 23.2895 34.4272C24.6719 35.4012 26.3098 35.948 28 36C29.6902 35.948 31.3281 35.4012 32.7105 34.4272C34.0929 33.4533 35.1591 32.0951 35.777 30.521L36 30L35.777 29.479ZM28 34C27.2089 34 26.4355 33.7654 25.7777 33.3259C25.1199 32.8864 24.6072 32.2616 24.3045 31.5307C24.0017 30.7998 23.9225 29.9956 24.0769 29.2196C24.2312 28.4437 24.6122 27.731 25.1716 27.1716C25.731 26.6122 26.4437 26.2312 27.2196 26.0769C27.9956 25.9225 28.7998 26.0017 29.5307 26.3045C30.2616 26.6072 30.8864 27.1199 31.3259 27.7777C31.7654 28.4355 32 29.2089 32 30C31.9987 31.0605 31.5768 32.0771 30.827 32.827C30.0771 33.5768 29.0605 33.9987 28 34ZM13 23H18V25H13V23ZM13 18H25V20H13V18ZM13 13H25V15H13V13Z" fill="black" fill-opacity="0.6"/>
<path d="M28 8H10C9.47005 8.00158 8.96227 8.2128 8.58753 8.58753C8.2128 8.96227 8.00158 9.47005 8 10V34C8.00158 34.5299 8.2128 35.0377 8.58753 35.4125C8.96227 35.7872 9.47005 35.9984 10 36H18V34H10V10H28V21H30V10C29.9984 9.47005 29.7872 8.96227 29.4125 8.58753C29.0377 8.2128 28.5299 8.00158 28 8Z" fill="black" fill-opacity="0.6"/>
<path d="M8 1H36V-1H8V1ZM43 8V36H45V8H43ZM36 43H8V45H36V43ZM1 36V8H-1V36H1ZM8 43C4.13401 43 1 39.866 1 36H-1C-1 40.9706 3.02944 45 8 45V43ZM43 36C43 39.866 39.866 43 36 43V45C40.9706 45 45 40.9706 45 36H43ZM36 1C39.866 1 43 4.13401 43 8H45C45 3.02944 40.9706 -1 36 -1V1ZM8 -1C3.02944 -1 -1 3.02944 -1 8H1C1 4.13401 4.13401 1 8 1V-1Z" fill="black" fill-opacity="0.6"/>
</svg>
