<svg width="28" height="28" viewBox="0 0 28 28" fill="none" xmlns="http://www.w3.org/2000/svg">
<path d="M27.3984 0.253838L20.0078 1.17181C19.75 1.20306 19.6445 1.51556 19.8242 1.69915L21.9609 3.83588L15.9648 9.83198C15.9067 9.89071 15.8741 9.97003 15.8741 10.0527C15.8741 10.1353 15.9067 10.2147 15.9648 10.2734L17.7266 12.0351C17.8477 12.1562 18.0469 12.1562 18.168 12.0351L24.168 6.0351L26.3047 8.17182C26.3459 8.21302 26.3979 8.24178 26.4547 8.25478C26.5115 8.26779 26.5709 8.26453 26.6259 8.24536C26.681 8.2262 26.7295 8.19191 26.7659 8.14643C26.8024 8.10095 26.8253 8.04612 26.832 7.98823L27.7461 0.601494C27.7526 0.554321 27.748 0.506291 27.7328 0.461162C27.7177 0.416033 27.6922 0.375031 27.6586 0.341362C27.6249 0.307693 27.5839 0.282272 27.5388 0.267088C27.4936 0.251904 27.4456 0.247369 27.3984 0.253838ZM10.2734 15.9648C10.2147 15.9066 10.1354 15.874 10.0527 15.874C9.97007 15.874 9.89076 15.9066 9.83202 15.9648L3.83593 21.9648L1.69921 19.8281C1.65799 19.7869 1.60599 19.7581 1.54917 19.7451C1.49235 19.7321 1.43302 19.7354 1.37798 19.7545C1.32293 19.7737 1.2744 19.808 1.23795 19.8535C1.20149 19.899 1.17859 19.9538 1.17187 20.0117L0.253899 27.3984C0.230461 27.6015 0.39843 27.7695 0.601555 27.7461L7.99218 26.8281C8.24999 26.7969 8.35546 26.4844 8.17577 26.3008L6.03906 24.164L12.0391 18.164C12.1601 18.0429 12.1601 17.8437 12.0391 17.7226L10.2734 15.9648Z" fill="black" fill-opacity="0.6"/>
</svg>
